<svg width="23" height="20" viewBox="0 0 23 20" fill="none" xmlns="http://www.w3.org/2000/svg">
<path d="M22.5032 7.98562C22.4027 7.88504 22.2396 7.88504 22.1392 7.98562L20.9986 9.12627C20.6857 4.04521 16.4418 0 11.2891 0C11.1469 0 11.0317 0.115198 11.0317 0.257368C11.0317 0.399538 11.1469 0.514736 11.2891 0.514736C16.1442 0.514736 20.1471 4.30669 20.4798 9.08417L19.3814 7.98572C19.2809 7.88514 19.1178 7.88514 19.0175 7.98572C18.9169 8.0863 18.9169 8.24916 19.0175 8.34964L20.5784 9.91053C20.6286 9.96077 20.6945 9.98588 20.7604 9.98588C20.8262 9.98588 20.8921 9.96077 20.9424 9.91053L22.5034 8.34964C22.6037 8.24916 22.6037 8.0862 22.5032 7.98562Z" fill="white"/>
<path d="M11.2895 18.9424C6.44283 18.9424 2.432 15.147 2.09876 10.373L3.19731 11.4714C3.24755 11.5217 3.31343 11.5468 3.37932 11.5468C3.44521 11.5468 3.51109 11.5217 3.56133 11.4714C3.66191 11.3709 3.66191 11.2079 3.56133 11.1075L2.00034 9.54663C1.89987 9.44605 1.7368 9.44605 1.63642 9.54663L0.0754346 11.1076C-0.0251449 11.2082 -0.0251449 11.3711 0.0754346 11.4715C0.175911 11.5721 0.33898 11.5721 0.439353 11.4715L1.57949 10.3314C1.72465 12.718 2.72911 14.9411 4.44019 16.6375C6.2743 18.4557 8.70674 19.4572 11.2895 19.4572C11.4317 19.4572 11.5468 19.342 11.5468 19.1998C11.5468 19.0576 11.4317 18.9424 11.2895 18.9424Z" fill="white"/>
</svg>
