<svg width="12" height="12" viewBox="0 0 12 12" fill="none" xmlns="http://www.w3.org/2000/svg">
<path d="M3.1953 7.07406C3.16354 7.19659 3.06219 7.22684 2.96991 7.13986L1.16826 5.45923C1.07523 5.37301 1.09641 5.26334 1.21365 5.21644L3.74064 4.2067C3.85863 4.15981 3.92897 4.22183 3.89721 4.34436L3.1953 7.07406Z" fill="#0C0C0C"/>
<path d="M1.70682 8.67223C1.61076 8.75467 1.51394 8.72063 1.49125 8.59583L0.997352 5.86387C0.974661 5.73907 1.03214 5.70806 1.12518 5.79428L2.83984 7.39398C2.93287 7.48021 2.92985 7.61862 2.83379 7.70182L1.70682 8.67223Z" fill="#0C0C0C"/>
<path d="M3.77469 3.66275C3.85713 3.75881 3.82839 3.87604 3.71115 3.92294L1.19853 4.92738C1.08054 4.97428 1.02079 4.91604 1.06466 4.79653L2.09633 2.02372C2.1402 1.90497 2.24457 1.88606 2.32702 1.98212L3.77469 3.66275Z" fill="#0C0C0C"/>
<path d="M1.14254 8.2071C1.16523 8.3319 1.12742 8.34703 1.05859 8.24038L0.0836418 6.73598C0.0148132 6.62934 0.0201077 6.45916 0.0964999 6.35781L0.531406 5.77465C0.607042 5.6733 0.687216 5.69221 0.709907 5.81701L1.14254 8.2071Z" fill="#0C0C0C"/>
<path d="M0.835474 4.6265C0.791605 4.74525 0.72202 4.74373 0.681933 4.62347L0.349135 3.62508C0.309805 3.50482 0.353673 3.33691 0.447462 3.25219L1.63419 2.17665C1.72798 2.09118 1.76882 2.11917 1.7242 2.23792L0.835474 4.6265Z" fill="#0C0C0C"/>
<path d="M0.522345 5.01223C0.562433 5.13249 0.532934 5.31402 0.457299 5.41537L0.116181 5.87221C0.0405451 5.97356 -0.0108873 5.9539 0.0019708 5.82758L0.165344 4.24226C0.178202 4.11594 0.222071 4.11141 0.262158 4.23167L0.522345 5.01223Z" fill="#0C0C0C"/>
<path d="M1.86186 1.44147C1.90422 1.49063 1.86186 1.6003 1.76807 1.68501L1.23408 2.16908C1.1403 2.25455 1.12517 2.24018 1.2008 2.13883L1.64781 1.53752C1.72269 1.43542 1.81951 1.3923 1.86186 1.44147Z" fill="#0C0C0C"/>
<path d="M5.22992 9.87937C5.16563 9.98904 5.0552 9.99283 4.98335 9.88845L3.58787 7.85763C3.51601 7.75325 3.56064 7.65719 3.68619 7.64433L6.49001 7.35465C6.61633 7.34179 6.667 7.42045 6.60271 7.53012L5.22992 9.87937Z" fill="#0C0C0C"/>
<path d="M4.64525 9.88164C4.71711 9.98602 4.67778 10.0382 4.55752 9.99736L1.92917 9.1041C1.80891 9.06326 1.78924 8.96191 1.8853 8.87947L3.01152 7.90906C3.10758 7.82661 3.24523 7.84401 3.31633 7.94839L4.64525 9.88164Z" fill="#0C0C0C"/>
<path d="M6.54827 6.88351C6.63071 6.97956 6.59516 7.06881 6.4696 7.08167L3.62418 7.37514C3.49787 7.388 3.42072 7.29875 3.45249 7.17546L4.16422 4.40492C4.19599 4.28239 4.28902 4.26045 4.37222 4.35651L6.54827 6.88351Z" fill="#0C0C0C"/>
<path d="M8.59346 9.25768C8.6759 9.35373 8.64262 9.45357 8.51858 9.48005L5.62324 10.0897C5.4992 10.1161 5.45003 10.0473 5.51432 9.9384L6.88031 7.60201C6.94384 7.49234 7.0641 7.48175 7.1473 7.5778L8.59346 9.25768Z" fill="#0C0C0C"/>
<path d="M3.9358 10.8158C3.82386 10.8756 3.65519 10.8559 3.55989 10.772L2.21584 9.58524C2.12054 9.50129 2.14096 9.46574 2.26123 9.50658L4.56131 10.2879C4.68157 10.3287 4.68838 10.4112 4.57644 10.4709L3.9358 10.8158Z" fill="#0C0C0C"/>
<path d="M7.05956 10.9285C6.96124 11.0086 6.78879 11.0276 6.67609 10.9701L5.73745 10.4928C5.62475 10.4353 5.63383 10.3673 5.75787 10.3408L8.25234 9.81587C8.37638 9.78939 8.39756 9.83402 8.29924 9.91419L7.05956 10.9285Z" fill="#0C0C0C"/>
<path d="M4.44633 10.9867C4.32002 10.9806 4.30792 10.9269 4.4191 10.8672L4.92133 10.5979C5.03327 10.5382 5.21706 10.5359 5.32976 10.5934L6.06343 10.9663C6.17613 11.0237 6.16554 11.0661 6.03847 11.06L4.44633 10.9867Z" fill="#0C0C0C"/>
<path d="M9.05937 9.79851C9.10173 9.84768 9.04424 9.93617 8.93306 9.99592L8.272 10.3491C8.16006 10.4089 8.14871 10.3923 8.24704 10.3121L8.80448 9.856C8.90205 9.77507 9.01701 9.74935 9.05937 9.79851Z" fill="#0C0C0C"/>
<path d="M7.38856 6.85401C7.27057 6.9009 7.20023 6.83888 7.232 6.71635L7.9339 3.98665C7.96566 3.86412 8.06702 3.83387 8.16005 3.92085L9.96169 5.60148C10.0547 5.6877 10.0335 5.79738 9.91631 5.84427L7.38856 6.85401Z" fill="#0C0C0C"/>
<path d="M10.1311 5.19672C10.1538 5.32152 10.0963 5.35253 10.0041 5.2663L8.28941 3.66661C8.19713 3.58038 8.1994 3.44197 8.29546 3.35877L9.42167 2.38836C9.51773 2.30592 9.61455 2.33995 9.63724 2.46475L10.1311 5.19672Z" fill="#0C0C0C"/>
<path d="M9.03213 9.03683C8.98826 9.15557 8.88389 9.17448 8.80144 9.07843L7.35377 7.3978C7.27133 7.30174 7.29931 7.1845 7.41731 7.13761L9.92993 6.13316C10.0479 6.08627 10.1077 6.14451 10.0638 6.26326L9.03213 9.03683Z" fill="#0C0C0C"/>
<path d="M11.0456 4.32479C11.1144 4.43143 11.1091 4.60162 11.0327 4.70297L10.5978 5.28612C10.5222 5.38747 10.4412 5.36856 10.4193 5.24376L9.98743 2.85291C9.96474 2.72812 10.0026 2.71299 10.0714 2.81963L11.0456 4.32479Z" fill="#0C0C0C"/>
<path d="M10.7793 7.43549C10.8194 7.55575 10.7756 7.72366 10.6818 7.80913L9.49504 8.88467C9.40125 8.96939 9.36041 8.94216 9.40503 8.82341L10.2938 6.43407C10.3376 6.31532 10.4072 6.31684 10.4465 6.4371L10.7793 7.43549Z" fill="#0C0C0C"/>
<path d="M10.9631 6.81849C10.9503 6.9448 10.9064 6.94934 10.8663 6.82908L10.6061 6.04852C10.566 5.92826 10.5955 5.74673 10.6712 5.64538L11.0123 5.18854C11.0879 5.08719 11.1394 5.10685 11.1265 5.23316L10.9631 6.81849Z" fill="#0C0C0C"/>
<path d="M9.48141 9.52306C9.40578 9.62517 9.30972 9.66828 9.26736 9.61912C9.22501 9.56995 9.26736 9.46028 9.36115 9.37557L9.89514 8.8915C9.98893 8.80603 10.0041 8.81965 9.92842 8.92176L9.48141 9.52306Z" fill="#0C0C0C"/>
<path d="M7.54136 3.20306C7.61321 3.30744 7.56859 3.4035 7.44227 3.41635L4.63845 3.70604C4.51214 3.7189 4.46147 3.64024 4.52576 3.53056L5.8993 1.18131C5.96359 1.07164 6.07402 1.06786 6.14588 1.17224L7.54136 3.20306Z" fill="#0C0C0C"/>
<path d="M8.1162 3.15078C8.02014 3.23322 7.88324 3.21583 7.81138 3.11145L6.48322 1.17895C6.41136 1.07458 6.45069 1.02239 6.57096 1.06323L9.1993 1.95649C9.31956 1.99733 9.33923 2.09793 9.24317 2.18113L8.1162 3.15078Z" fill="#0C0C0C"/>
<path d="M6.96423 6.6559C6.93247 6.77843 6.83944 6.80037 6.75624 6.70431L4.58019 4.17731C4.49775 4.08126 4.53254 3.99201 4.65885 3.97915L7.50427 3.68568C7.63059 3.67282 7.70774 3.76207 7.67597 3.88536L6.96423 6.6559Z" fill="#0C0C0C"/>
<path d="M4.24966 3.4594C4.18537 3.56907 4.06587 3.57966 3.98267 3.4836L2.535 1.80298C2.45255 1.70692 2.48583 1.60708 2.60987 1.58136L5.50522 0.971737C5.62926 0.945265 5.67842 1.01409 5.61413 1.12301L4.24966 3.4594Z" fill="#0C0C0C"/>
<path d="M6.56715 0.772201C6.44689 0.731357 6.44009 0.648914 6.55203 0.589162L7.19342 0.245019C7.30536 0.185266 7.47403 0.204932 7.56933 0.288887L8.91338 1.47561C9.00868 1.55957 8.98826 1.59512 8.868 1.55428L6.56715 0.772201Z" fill="#0C0C0C"/>
<path d="M2.87688 1.24475C2.75284 1.27047 2.73166 1.2266 2.82998 1.14642L4.06966 0.132146C4.16798 0.0519721 4.34043 0.0330631 4.45313 0.0905464L5.39177 0.567809C5.50447 0.625292 5.49539 0.693364 5.37211 0.719837L2.87688 1.24475Z" fill="#0C0C0C"/>
<path d="M6.20715 0.462711C6.09521 0.522463 5.91141 0.524732 5.79872 0.467249L5.06505 0.0943641C4.95235 0.0368809 4.96294 -0.0054752 5.09001 0.000575668L6.68214 0.0739425C6.80845 0.0799933 6.82131 0.133695 6.70937 0.193447L6.20715 0.462711Z" fill="#0C0C0C"/>
<path d="M2.32475 1.2055C2.22642 1.28567 2.11221 1.31139 2.06986 1.26222C2.0275 1.21306 2.08423 1.12457 2.19617 1.06481L2.85723 0.711594C2.96917 0.651841 2.98051 0.668481 2.88219 0.749412L2.32475 1.2055Z" fill="#0C0C0C"/>
<path d="M1.47534 9.23349C1.52451 9.19113 1.63418 9.23349 1.71889 9.32728L2.20296 9.86126C2.28843 9.95505 2.27481 9.97018 2.1727 9.89454L1.5714 9.44754C1.47005 9.3719 1.42694 9.27509 1.47534 9.23349Z" fill="#0C0C0C"/>
<path d="M9.83236 2.03519C9.88152 1.99284 9.97002 2.05032 10.0298 2.16151L10.383 2.82256C10.4427 2.9345 10.4261 2.94585 10.3459 2.84752L9.88984 2.29009C9.80891 2.19252 9.78319 2.07755 9.83236 2.03519Z" fill="#0C0C0C"/>
<path d="M9.55706 1.61324C9.65841 1.68887 9.70152 1.78493 9.65311 1.82729C9.60395 1.86964 9.49428 1.82729 9.40957 1.7335L8.9255 1.19951C8.84003 1.10572 8.85364 1.09059 8.95575 1.16623L9.55706 1.61324Z" fill="#0C0C0C"/>
<path d="M1.23937 8.77063C1.31954 8.86896 1.34526 8.98317 1.2961 9.02553C1.24693 9.06788 1.15844 9.0104 1.09869 8.89922L0.745468 8.23816C0.685716 8.12622 0.702356 8.11487 0.783286 8.2132L1.23937 8.77063Z" fill="#0C0C0C"/>
</svg>
