<svg width="24" height="24" viewBox="0 0 24 24" fill="none" xmlns="http://www.w3.org/2000/svg">
<g clip-path="url(#clip0)">
<path d="M16.49 11.0927C15.7821 11.0588 15.001 10.8234 14.4907 10.6113C13.87 9.13733 12.4108 8.09985 10.7138 8.09985C8.45516 8.09985 6.61788 9.93732 6.61788 12.1959C6.61788 12.3281 6.61476 12.4594 6.60872 12.5891C5.29952 11.8903 4.34938 11.0396 3.9081 10.1624C3.79293 9.93365 3.56258 9.79688 3.3066 9.80713C3.05171 9.81665 2.83309 9.96881 2.73586 10.2045C2.26235 11.3522 2.28578 12.369 2.8113 13.2913C2.53261 13.2074 2.21932 13.0697 1.95272 12.8795C1.75002 12.7346 1.48799 12.7198 1.26882 12.8403C1.05 12.9608 0.922747 13.1896 0.936296 13.4379C1.04341 15.3745 2.34859 16.4778 3.65724 17.0999C2.84041 17.4315 1.86153 17.6164 0.735796 17.6506C0.429094 17.66 0.168169 17.8423 0.0548266 18.1263C-0.0581495 18.4096 0.00538812 18.7203 0.22072 18.9373C0.418291 19.1365 0.638567 19.329 0.875872 19.5097C1.03041 19.6273 1.25087 19.5974 1.36861 19.4429C1.48616 19.2883 1.45632 19.0679 1.30177 18.9501C1.09029 18.7892 0.894548 18.6183 0.719866 18.4422C0.712542 18.4349 0.695513 18.4177 0.707781 18.3869C0.720598 18.3545 0.747148 18.3538 0.757219 18.3534C2.33193 18.3054 3.65468 17.9769 4.68868 17.3773C4.80696 17.3086 4.87471 17.1773 4.86226 17.0411C4.84981 16.9047 4.75936 16.788 4.63045 16.7421C2.78108 16.0822 1.77803 14.9991 1.6473 13.522C2.27956 13.9347 3.14528 14.1751 3.63106 14.063C3.75173 14.0352 3.84877 13.946 3.88668 13.8281C3.92458 13.7104 3.89784 13.5813 3.81618 13.4883C3.0649 12.6337 2.91182 11.7103 3.33882 10.5908C3.76601 11.3751 4.70497 12.4728 6.76692 13.4561C6.86946 13.5049 6.9894 13.5013 7.08901 13.446C7.18825 13.3909 7.2549 13.2909 7.26753 13.1779C7.30306 12.8617 7.321 12.5314 7.321 12.1959C7.321 10.3251 8.84297 8.80298 10.7138 8.80298C12.5847 8.80298 14.1067 10.3251 14.1067 12.1959C14.1067 12.3851 14.1012 12.6125 14.0849 12.8683C14.0846 12.8732 14.0842 12.8782 14.084 12.8833C14.0216 13.8523 13.8051 15.2309 13.1494 16.5522C12.1145 18.6381 10.3263 19.8909 7.83461 20.276C5.88106 20.5778 4.13588 20.3972 2.64723 19.7393C2.46981 19.6608 2.26216 19.7411 2.18361 19.9188C2.10524 20.0964 2.18544 20.3038 2.36305 20.3824C3.47579 20.8742 4.71376 21.1208 6.05995 21.1208C6.66585 21.1208 7.29372 21.071 7.94191 20.9709C13.4111 20.1257 14.5511 15.601 14.7644 13.1909C15.5659 13.0142 16.3371 12.6055 16.869 12.0665C17.0272 11.9062 17.0765 11.6666 16.9943 11.4562C16.9112 11.2429 16.7178 11.1037 16.49 11.0927ZM14.8064 12.4559C14.8087 12.362 14.8098 12.2748 14.8098 12.1959C14.8098 11.9427 14.7866 11.6948 14.7423 11.4542C15.1693 11.5948 15.6626 11.7167 16.1507 11.7706C15.7792 12.0749 15.3013 12.3175 14.8064 12.4559ZM21.4159 7.30243H18.369C18.1748 7.30243 18.0175 7.4599 18.0175 7.65399C18.0175 7.84808 18.1748 8.00555 18.369 8.00555H21.4159C21.61 8.00555 21.7675 7.84808 21.7675 7.65399C21.7675 7.4599 21.61 7.30243 21.4159 7.30243ZM11.5377 11.2939C11.5377 11.1727 11.6364 11.074 11.7576 11.074C11.8789 11.074 11.9774 11.1727 11.9774 11.2939C11.9774 11.488 12.1347 11.6455 12.3289 11.6455C12.523 11.6455 12.6805 11.488 12.6805 11.2939C12.6805 10.7851 12.2665 10.3711 11.7576 10.3711C11.2488 10.3711 10.8346 10.7851 10.8346 11.2939C10.8346 11.488 10.9921 11.6455 11.1862 11.6455C11.3805 11.6455 11.5377 11.488 11.5377 11.2939ZM19.8925 2.85938C18.801 2.85938 17.7749 3.27905 17.0031 4.04095C16.2313 4.80304 15.7988 5.82385 15.7854 6.91498C15.7783 7.50055 15.8918 8.06781 16.1231 8.60046C16.1355 8.62921 16.1386 8.66199 16.1324 8.6955L15.8839 10.0148C15.8336 10.2819 15.9182 10.5562 16.1106 10.7487C16.3029 10.9409 16.5772 11.0255 16.8443 10.9753L18.1636 10.7267C18.1971 10.7205 18.2299 10.7238 18.2584 10.736C18.7753 10.9605 19.3247 11.074 19.8917 11.074C19.9091 11.074 19.9265 11.0739 19.9439 11.0737C20.6055 11.0656 21.2346 10.9067 21.8134 10.6016C21.9852 10.5112 22.0511 10.2984 21.9607 10.1266C21.87 9.9549 21.6574 9.88898 21.4857 9.97961C21.0061 10.2323 20.4845 10.364 19.9353 10.3707C19.4486 10.377 18.9797 10.2827 18.5384 10.0911C18.3804 10.0225 18.2059 10.0034 18.0334 10.0358L16.7141 10.2843C16.6603 10.2946 16.6242 10.268 16.6077 10.2513C16.5911 10.2347 16.5647 10.1986 16.5748 10.1448L16.8233 8.8255C16.8557 8.6532 16.8366 8.4787 16.768 8.3205C16.5764 7.87921 16.4823 7.40936 16.4884 6.92358C16.4995 6.01849 16.8579 5.17236 17.4971 4.5412C18.1365 3.91003 18.9872 3.56232 19.8925 3.56232C21.7695 3.56232 23.2966 5.08942 23.2966 6.96661C23.2966 7.70544 23.067 8.40674 22.6321 8.99469C22.5166 9.15088 22.5495 9.37097 22.7057 9.48633C22.8619 9.60187 23.082 9.56873 23.1973 9.41272C23.7223 8.70282 23.9997 7.85706 23.9997 6.96661C23.9997 4.70197 22.1573 2.85938 19.8925 2.85938ZM21.4159 5.75793H18.369C18.1748 5.75793 18.0175 5.91541 18.0175 6.1095C18.0175 6.30377 18.1748 6.46106 18.369 6.46106H21.4159C21.61 6.46106 21.7675 6.30377 21.7675 6.1095C21.7675 5.91541 21.61 5.75793 21.4159 5.75793Z" fill="#161616"/>
</g>
<defs>
<clipPath id="clip0">
<rect width="24" height="24" fill="white"/>
</clipPath>
</defs>
</svg>
