<svg width="24" height="24" viewBox="0 0 24 24" fill="none" xmlns="http://www.w3.org/2000/svg">
<g clip-path="url(#clip0)">
<path d="M16.4903 11.0927C15.7824 11.0588 15.0012 10.8234 14.4909 10.6113C13.8702 9.13733 12.411 8.09985 10.714 8.09985C8.4554 8.09985 6.61812 9.93732 6.61812 12.1959C6.61812 12.3281 6.61501 12.4594 6.60897 12.5891C5.29976 11.8903 4.34963 11.0396 3.90834 10.1624C3.79317 9.93365 3.56282 9.79688 3.30684 9.80713C3.05196 9.81665 2.83333 9.96881 2.7361 10.2045C2.26259 11.3522 2.28603 12.369 2.81154 13.2913C2.53285 13.2074 2.21956 13.0697 1.95296 12.8795C1.75026 12.7346 1.48824 12.7198 1.26906 12.8403C1.05025 12.9608 0.922991 13.1896 0.936541 13.4379C1.04366 15.3745 2.34883 16.4778 3.65749 17.0999C2.84065 17.4315 1.86177 17.6164 0.73604 17.6506C0.429338 17.66 0.168413 17.8423 0.0550707 18.1263C-0.0579054 18.4096 0.00563226 18.7203 0.220964 18.9373C0.418535 19.1365 0.638811 19.329 0.876116 19.5097C1.03066 19.6273 1.25112 19.5974 1.36885 19.4429C1.48641 19.2883 1.45656 19.0679 1.30202 18.9501C1.09053 18.7892 0.894793 18.6183 0.72011 18.4422C0.712786 18.4349 0.695757 18.4177 0.708025 18.3869C0.720842 18.3545 0.747393 18.3538 0.757463 18.3534C2.33217 18.3054 3.65492 17.9769 4.68892 17.3773C4.80721 17.3086 4.87496 17.1773 4.86251 17.0411C4.85005 16.9047 4.7596 16.788 4.63069 16.7421C2.78133 16.0822 1.77828 14.9991 1.64754 13.522C2.2798 13.9347 3.14553 14.1751 3.6313 14.063C3.75197 14.0352 3.84902 13.946 3.88692 13.8281C3.92482 13.7104 3.89809 13.5813 3.81642 13.4883C3.06514 12.6337 2.91207 11.7103 3.33907 10.5908C3.76625 11.3751 4.70522 12.4728 6.76717 13.4561C6.86971 13.5049 6.98964 13.5013 7.08925 13.446C7.18849 13.3909 7.25514 13.2909 7.26778 13.1779C7.3033 12.8617 7.32125 12.5314 7.32125 12.1959C7.32125 10.3251 8.84322 8.80298 10.714 8.80298C12.585 8.80298 14.107 10.3251 14.107 12.1959C14.107 12.3851 14.1015 12.6125 14.0852 12.8683C14.0848 12.8732 14.0844 12.8782 14.0842 12.8833C14.0218 13.8523 13.8054 15.2309 13.1497 16.5522C12.1148 18.6381 10.3266 19.8909 7.83486 20.276C5.8813 20.5778 4.13613 20.3972 2.64748 19.7393C2.47005 19.6608 2.26241 19.7411 2.18386 19.9188C2.10549 20.0964 2.18569 20.3038 2.3633 20.3824C3.47603 20.8742 4.71401 21.1208 6.0602 21.1208C6.66609 21.1208 7.29396 21.071 7.94216 20.9709C13.4113 20.1257 14.5513 15.601 14.7647 13.1909C15.5661 13.0142 16.3374 12.6055 16.8693 12.0665C17.0275 11.9062 17.0767 11.6666 16.9945 11.4562C16.9114 11.2429 16.718 11.1037 16.4903 11.0927ZM14.8066 12.4559C14.809 12.362 14.8101 12.2748 14.8101 12.1959C14.8101 11.9427 14.7868 11.6948 14.7425 11.4542C15.1695 11.5948 15.6628 11.7167 16.151 11.7706C15.7794 12.0749 15.3015 12.3175 14.8066 12.4559ZM21.4162 7.30243H18.3693C18.175 7.30243 18.0177 7.4599 18.0177 7.65399C18.0177 7.84808 18.175 8.00555 18.3693 8.00555H21.4162C21.6103 8.00555 21.7677 7.84808 21.7677 7.65399C21.7677 7.4599 21.6103 7.30243 21.4162 7.30243ZM11.538 11.2939C11.538 11.1727 11.6367 11.074 11.7579 11.074C11.8791 11.074 11.9776 11.1727 11.9776 11.2939C11.9776 11.488 12.1349 11.6455 12.3292 11.6455C12.5233 11.6455 12.6807 11.488 12.6807 11.2939C12.6807 10.7851 12.2667 10.3711 11.7579 10.3711C11.249 10.3711 10.8349 10.7851 10.8349 11.2939C10.8349 11.488 10.9923 11.6455 11.1864 11.6455C11.3807 11.6455 11.538 11.488 11.538 11.2939ZM19.8927 2.85938C18.8012 2.85938 17.7751 3.27905 17.0033 4.04095C16.2315 4.80304 15.799 5.82385 15.7857 6.91498C15.7785 7.50055 15.892 8.06781 16.1233 8.60046C16.1358 8.62921 16.1389 8.66199 16.1326 8.6955L15.8842 10.0148C15.8338 10.2819 15.9184 10.5562 16.1109 10.7487C16.3031 10.9409 16.5774 11.0255 16.8446 10.9753L18.1638 10.7267C18.1973 10.7205 18.2301 10.7238 18.2587 10.736C18.7756 10.9605 19.3249 11.074 19.892 11.074C19.9094 11.074 19.9268 11.0739 19.9442 11.0737C20.6057 11.0656 21.2349 10.9067 21.8137 10.6016C21.9854 10.5112 22.0514 10.2984 21.9609 10.1266C21.8703 9.9549 21.6577 9.88898 21.4859 9.97961C21.0064 10.2323 20.4847 10.364 19.9356 10.3707C19.4489 10.377 18.9799 10.2827 18.5387 10.0911C18.3806 10.0225 18.2061 10.0034 18.0336 10.0358L16.7144 10.2843C16.6605 10.2946 16.6245 10.268 16.608 10.2513C16.5913 10.2347 16.565 10.1986 16.575 10.1448L16.8235 8.8255C16.8559 8.6532 16.8369 8.4787 16.7682 8.3205C16.5767 7.87921 16.4826 7.40936 16.4886 6.92358C16.4998 6.01849 16.8581 5.17236 17.4973 4.5412C18.1367 3.91003 18.9874 3.56232 19.8927 3.56232C21.7697 3.56232 23.2968 5.08942 23.2968 6.96661C23.2968 7.70544 23.0672 8.40674 22.6323 8.99469C22.5168 9.15088 22.5498 9.37097 22.706 9.48633C22.8621 9.60187 23.0822 9.56873 23.1976 9.41272C23.7226 8.70282 24 7.85706 24 6.96661C24 4.70197 22.1576 2.85938 19.8927 2.85938ZM21.4162 5.75793H18.3693C18.175 5.75793 18.0177 5.91541 18.0177 6.1095C18.0177 6.30377 18.175 6.46106 18.3693 6.46106H21.4162C21.6103 6.46106 21.7677 6.30377 21.7677 6.1095C21.7677 5.91541 21.6103 5.75793 21.4162 5.75793Z" fill="#FFC843"/>
</g>
<defs>
<clipPath id="clip0">
<rect width="24" height="24" fill="white"/>
</clipPath>
</defs>
</svg>
