<svg width="32" height="30" viewBox="0 0 32 30" fill="none" xmlns="http://www.w3.org/2000/svg">
<g clip-path="url(#clip0)" filter="url(#filter0_d)">
<path d="M20.4903 11.0927C19.7824 11.0588 19.0012 10.8234 18.4909 10.6113C17.8702 9.13733 16.411 8.09985 14.714 8.09985C12.4554 8.09985 10.6181 9.93732 10.6181 12.1959C10.6181 12.3281 10.615 12.4594 10.609 12.5891C9.29976 11.8903 8.34963 11.0396 7.90834 10.1624C7.79317 9.93365 7.56282 9.79688 7.30684 9.80713C7.05196 9.81665 6.83333 9.96881 6.7361 10.2045C6.26259 11.3522 6.28603 12.369 6.81154 13.2913C6.53285 13.2074 6.21956 13.0697 5.95296 12.8795C5.75026 12.7346 5.48824 12.7198 5.26906 12.8403C5.05025 12.9608 4.92299 13.1896 4.93654 13.4379C5.04366 15.3745 6.34883 16.4778 7.65749 17.0999C6.84065 17.4315 5.86177 17.6164 4.73604 17.6506C4.42934 17.66 4.16841 17.8423 4.05507 18.1263C3.94209 18.4096 4.00563 18.7203 4.22096 18.9373C4.41854 19.1365 4.63881 19.329 4.87612 19.5097C5.03066 19.6273 5.25112 19.5974 5.36885 19.4429C5.48641 19.2883 5.45656 19.0679 5.30202 18.9501C5.09053 18.7892 4.89479 18.6183 4.72011 18.4422C4.71279 18.4349 4.69576 18.4177 4.70802 18.3869C4.72084 18.3545 4.74739 18.3538 4.75746 18.3534C6.33217 18.3054 7.65492 17.9769 8.68892 17.3773C8.80721 17.3086 8.87496 17.1773 8.86251 17.0411C8.85005 16.9047 8.7596 16.788 8.63069 16.7421C6.78133 16.0822 5.77828 14.9991 5.64754 13.522C6.2798 13.9347 7.14553 14.1751 7.6313 14.063C7.75197 14.0352 7.84902 13.946 7.88692 13.8281C7.92482 13.7104 7.89809 13.5813 7.81642 13.4883C7.06514 12.6337 6.91207 11.7103 7.33907 10.5908C7.76625 11.3751 8.70522 12.4728 10.7672 13.4561C10.8697 13.5049 10.9896 13.5013 11.0893 13.446C11.1885 13.3909 11.2551 13.2909 11.2678 13.1779C11.3033 12.8617 11.3212 12.5314 11.3212 12.1959C11.3212 10.3251 12.8432 8.80298 14.714 8.80298C16.585 8.80298 18.107 10.3251 18.107 12.1959C18.107 12.3851 18.1015 12.6125 18.0852 12.8683C18.0848 12.8732 18.0844 12.8782 18.0842 12.8833C18.0218 13.8523 17.8054 15.2309 17.1497 16.5522C16.1148 18.6381 14.3266 19.8909 11.8349 20.276C9.8813 20.5778 8.13613 20.3972 6.64748 19.7393C6.47005 19.6608 6.26241 19.7411 6.18386 19.9188C6.10549 20.0964 6.18569 20.3038 6.3633 20.3824C7.47603 20.8742 8.71401 21.1208 10.0602 21.1208C10.6661 21.1208 11.294 21.071 11.9422 20.9709C17.4113 20.1257 18.5513 15.601 18.7647 13.1909C19.5661 13.0142 20.3374 12.6055 20.8693 12.0665C21.0275 11.9062 21.0767 11.6666 20.9945 11.4562C20.9114 11.2429 20.718 11.1037 20.4903 11.0927ZM18.8066 12.4559C18.809 12.362 18.8101 12.2748 18.8101 12.1959C18.8101 11.9427 18.7868 11.6948 18.7425 11.4542C19.1695 11.5948 19.6628 11.7167 20.151 11.7706C19.7794 12.0749 19.3015 12.3175 18.8066 12.4559ZM25.4162 7.30243H22.3693C22.175 7.30243 22.0177 7.4599 22.0177 7.65399C22.0177 7.84808 22.175 8.00555 22.3693 8.00555H25.4162C25.6103 8.00555 25.7677 7.84808 25.7677 7.65399C25.7677 7.4599 25.6103 7.30243 25.4162 7.30243ZM15.538 11.2939C15.538 11.1727 15.6367 11.074 15.7579 11.074C15.8791 11.074 15.9776 11.1727 15.9776 11.2939C15.9776 11.488 16.1349 11.6455 16.3292 11.6455C16.5233 11.6455 16.6807 11.488 16.6807 11.2939C16.6807 10.7851 16.2667 10.3711 15.7579 10.3711C15.249 10.3711 14.8349 10.7851 14.8349 11.2939C14.8349 11.488 14.9923 11.6455 15.1864 11.6455C15.3807 11.6455 15.538 11.488 15.538 11.2939ZM23.8927 2.85938C22.8012 2.85938 21.7751 3.27905 21.0033 4.04095C20.2315 4.80304 19.799 5.82385 19.7857 6.91498C19.7785 7.50055 19.892 8.06781 20.1233 8.60046C20.1358 8.62921 20.1389 8.66199 20.1326 8.6955L19.8842 10.0148C19.8338 10.2819 19.9184 10.5562 20.1109 10.7487C20.3031 10.9409 20.5774 11.0255 20.8446 10.9753L22.1638 10.7267C22.1973 10.7205 22.2301 10.7238 22.2587 10.736C22.7756 10.9605 23.3249 11.074 23.892 11.074C23.9094 11.074 23.9268 11.0739 23.9442 11.0737C24.6057 11.0656 25.2349 10.9067 25.8137 10.6016C25.9854 10.5112 26.0514 10.2984 25.9609 10.1266C25.8703 9.9549 25.6577 9.88898 25.4859 9.97961C25.0064 10.2323 24.4847 10.364 23.9356 10.3707C23.4489 10.377 22.9799 10.2827 22.5387 10.0911C22.3806 10.0225 22.2061 10.0034 22.0336 10.0358L20.7144 10.2843C20.6605 10.2946 20.6245 10.268 20.608 10.2513C20.5913 10.2347 20.565 10.1986 20.575 10.1448L20.8235 8.8255C20.8559 8.6532 20.8369 8.4787 20.7682 8.3205C20.5767 7.87921 20.4826 7.40936 20.4886 6.92358C20.4998 6.01849 20.8581 5.17236 21.4973 4.5412C22.1367 3.91003 22.9874 3.56232 23.8927 3.56232C25.7697 3.56232 27.2968 5.08942 27.2968 6.96661C27.2968 7.70544 27.0672 8.40674 26.6323 8.99469C26.5168 9.15088 26.5498 9.37097 26.706 9.48633C26.8621 9.60187 27.0822 9.56873 27.1976 9.41272C27.7226 8.70282 28 7.85706 28 6.96661C28 4.70197 26.1576 2.85938 23.8927 2.85938ZM25.4162 5.75793H22.3693C22.175 5.75793 22.0177 5.91541 22.0177 6.1095C22.0177 6.30377 22.175 6.46106 22.3693 6.46106H25.4162C25.6103 6.46106 25.7677 6.30377 25.7677 6.1095C25.7677 5.91541 25.6103 5.75793 25.4162 5.75793Z" fill="#161616"/>
</g>
<defs>
<filter id="filter0_d" x="0" y="0" width="32" height="32" filterUnits="userSpaceOnUse" color-interpolation-filters="sRGB">
<feFlood flood-opacity="0" result="BackgroundImageFix"/>
<feColorMatrix in="SourceAlpha" type="matrix" values="0 0 0 0 0 0 0 0 0 0 0 0 0 0 0 0 0 0 127 0"/>
<feOffset dy="4"/>
<feGaussianBlur stdDeviation="2"/>
<feColorMatrix type="matrix" values="0 0 0 0 0 0 0 0 0 0 0 0 0 0 0 0 0 0 0.25 0"/>
<feBlend mode="normal" in2="BackgroundImageFix" result="effect1_dropShadow"/>
<feBlend mode="normal" in="SourceGraphic" in2="effect1_dropShadow" result="shape"/>
</filter>
<clipPath id="clip0">
<rect width="24" height="24" fill="white" transform="translate(4)"/>
</clipPath>
</defs>
</svg>
