<svg width="23" height="20" viewBox="0 0 23 20" fill="none" xmlns="http://www.w3.org/2000/svg">
<path d="M22.5032 7.98562C22.4027 7.88504 22.2396 7.88504 22.1392 7.98562L20.9986 9.12627C20.6857 4.04521 16.4418 0 11.2891 0C11.1469 0 11.0317 0.115198 11.0317 0.257368C11.0317 0.399538 11.1469 0.514736 11.2891 0.514736C16.1442 0.514736 20.1471 4.30669 20.4798 9.08417L19.3814 7.98572C19.2809 7.88514 19.1178 7.88514 19.0175 7.98572C18.9169 8.0863 18.9169 8.24916 19.0175 8.34964L20.5784 9.91053C20.6286 9.96077 20.6945 9.98588 20.7604 9.98588C20.8262 9.98588 20.8921 9.96077 20.9424 9.91053L22.5034 8.34964C22.6037 8.24916 22.6037 8.0862 22.5032 7.98562Z" fill="white"/>
<path d="M11.2895 18.9424C6.44283 18.9424 2.432 15.147 2.09876 10.373L3.19731 11.4714C3.24755 11.5217 3.31343 11.5468 3.37932 11.5468C3.44521 11.5468 3.51109 11.5217 3.56133 11.4714C3.66191 11.3709 3.66191 11.2079 3.56133 11.1075L2.00034 9.54663C1.89987 9.44605 1.7368 9.44605 1.63642 9.54663L0.0754346 11.1076C-0.0251449 11.2082 -0.0251449 11.3711 0.0754346 11.4715C0.175911 11.5721 0.33898 11.5721 0.439353 11.4715L1.57949 10.3314C1.72465 12.718 2.72911 14.9411 4.44019 16.6375C6.2743 18.4557 8.70674 19.4572 11.2895 19.4572C11.4317 19.4572 11.5468 19.342 11.5468 19.1998C11.5468 19.0576 11.4317 18.9424 11.2895 18.9424Z" fill="white"/>
<path d="M14.0137 5.96154C14.4637 5.96154 14.8552 6.12632 15.1775 6.45132L15.4366 6.71269L15.4679 6.82736L15.4744 6.85099L15.6641 7.54522V7.83654C15.6641 8.55798 15.5148 9.31558 15.2324 10.0274C14.9357 10.7755 14.5085 11.4505 13.9629 12.0337C13.1071 12.9483 11.5668 14.0385 9.08789 14.0385C9.01504 14.0385 8.94233 14.0373 8.86961 14.0349C9.10894 13.9034 9.33895 13.7571 9.55782 13.5965L9.95117 13.3078V12.8365V12.7404V11.7788L9.53273 11.7744C9.07522 11.7696 8.70703 11.4172 8.70703 10.984V10.1978L8.15778 10.0804C7.91477 10.0284 7.74219 9.82399 7.74219 9.58813V8.99038V8.91827L7.72949 8.42815L7.27782 8.14264C7.08277 7.98728 6.906 7.76538 6.78006 7.52524C8.11279 8.44538 9.69559 8.99601 11.3405 9.08498L12.4141 9.14303V8.125V8.10096V7.98738L12.3861 7.87692C12.3541 7.7505 12.3379 7.63178 12.3379 7.52404C12.3379 7.11 12.5124 6.71904 12.8292 6.42315C13.1479 6.12548 13.5686 5.96154 14.0137 5.96154ZM14.0137 5C12.5417 5 11.3223 6.12829 11.3223 7.52404C11.3223 7.72264 11.3519 7.91707 11.3984 8.10096V8.125C9.20451 8.00635 7.21807 6.95 5.91406 5.43269C5.68522 5.80601 5.55859 6.33947 5.55859 6.80288C5.55859 7.52404 6.0109 8.48993 6.72656 8.94231V8.99038C6.29924 8.97406 5.86155 8.69536 5.50781 8.50962C5.50781 8.52065 5.5233 8.53392 5.5233 8.54495C5.5233 9.76969 6.47149 10.826 7.69141 11.0577C7.47881 11.1109 7.17938 11.1538 6.95508 11.1538C6.78247 11.1538 6.61017 11.1112 6.44727 11.0817C6.78666 12.0858 7.76758 12.7404 8.93555 12.7404V12.7644C8.02644 13.4317 6.87413 13.8942 5.63477 13.8942C5.41948 13.8942 5.15234 13.8702 5 13.8462C6.17917 14.5633 7.58096 15 9.08789 15C13.9927 15 16.6797 11.1779 16.6797 7.83654V7.5C17.2014 7.14325 17.6431 6.66139 18 6.15385C18 6.15385 17.0639 6.57377 16.4576 6.61017L16.4512 6.58654C17.002 6.27392 17.4467 5.75856 17.6445 5.16827C17.1286 5.45882 16.525 5.67925 15.918 5.79327C15.4312 5.30226 14.7817 5 14.0137 5ZM17.6445 5.16827H17.6447H17.6445Z" fill="white"/>
</svg>
