<svg width="15" height="15" viewBox="0 0 15 15" fill="none" xmlns="http://www.w3.org/2000/svg">
<path d="M5 6C5.59334 6 6.17336 5.82405 6.66671 5.49441C7.16006 5.16476 7.54457 4.69623 7.77164 4.14805C7.9987 3.59987 8.05811 2.99667 7.94235 2.41473C7.8266 1.83279 7.54088 1.29824 7.12132 0.878681C6.70176 0.459123 6.16721 0.173401 5.58527 0.0576455C5.00333 -0.0581101 4.40013 0.00129986 3.85195 0.228363C3.30377 0.455426 2.83524 0.839943 2.50559 1.33329C2.17595 1.82664 2 2.40666 2 3C2.00079 3.79541 2.31712 4.55801 2.87956 5.12044C3.44199 5.68288 4.20459 5.99921 5 6ZM5 1C5.39556 1 5.78224 1.1173 6.11114 1.33706C6.44004 1.55682 6.69638 1.86918 6.84776 2.23463C6.99913 2.60009 7.03874 3.00222 6.96157 3.39018C6.8844 3.77814 6.69392 4.13451 6.41421 4.41421C6.13451 4.69392 5.77814 4.8844 5.39018 4.96157C5.00222 5.03874 4.60008 4.99913 4.23463 4.84776C3.86918 4.69638 3.55682 4.44004 3.33706 4.11114C3.1173 3.78224 3 3.39556 3 3C3 2.46957 3.21071 1.96086 3.58579 1.58579C3.96086 1.21071 4.46957 1 5 1Z" fill="white"/>
<path d="M5 7C3.9395 7.00106 2.92276 7.38068 2.17287 8.05558C1.42298 8.73049 1.00118 9.64555 1 10.6C1 10.7061 1.04683 10.8078 1.13017 10.8828C1.21352 10.9579 1.32657 11 1.44444 11C1.56232 11 1.67536 10.9579 1.75871 10.8828C1.84206 10.8078 1.88889 10.7061 1.88889 10.6C1.88889 9.85739 2.21667 9.1452 2.80011 8.6201C3.38356 8.095 4.17488 7.8 5 7.8C5.82512 7.8 6.61644 8.095 7.19989 8.6201C7.78333 9.1452 8.11111 9.85739 8.11111 10.6C8.11111 10.7061 8.15794 10.8078 8.24129 10.8828C8.32464 10.9579 8.43768 11 8.55556 11C8.67343 11 8.78648 10.9579 8.86983 10.8828C8.95318 10.8078 9 10.7061 9 10.6C8.99882 9.64555 8.57702 8.73049 7.82713 8.05558C7.07724 7.38068 6.0605 7.00106 5 7Z" fill="white" stroke="white" stroke-width="0.3"/>
<path d="M11.5 8.00098C9.56668 8.00098 8 9.56812 8 11.5003C8 13.4336 9.56668 15.0001 11.5 15.0001C13.4333 15.0001 15 13.4338 15 11.5003C15 9.56812 13.4331 8.00098 11.5 8.00098ZM10.9745 13.5863C10.8958 13.664 10.7693 13.664 10.6916 13.5863L10.6289 13.5236L10.5606 13.4558L10.2678 13.163L10.2632 13.1563L8.91993 11.8028C8.84175 11.7251 8.84175 11.5977 8.91993 11.5206L9.34324 11.0973C9.42188 11.0189 9.54749 11.0189 9.62567 11.0973L10.8343 12.3145L13.3741 9.77422C13.4518 9.69627 13.5783 9.69627 13.6561 9.77422L14.0794 10.198C14.1576 10.2757 14.1576 10.4027 14.0794 10.4804L10.9745 13.5863Z" fill="#FFC843"/>
</svg>
