<svg width="20" height="20" viewBox="0 0 20 20" fill="none" xmlns="http://www.w3.org/2000/svg">
<path d="M10 5L10 15L11.6667 15L13.3333 13.8889L14.4444 12.2222L15 10L14.4444 7.77778L13.3333 6.11111L11.1111 5L10 5Z" fill="#1A1A1A"/>
<path d="M9.63162 0.578247C4.40182 0.578247 0.162231 4.81783 0.162231 10.0476C0.162231 15.2774 4.40182 19.517 9.63162 19.517C14.8614 19.517 19.101 15.2774 19.101 10.0476C19.0951 4.82027 14.859 0.584165 9.63162 0.578247ZM9.63162 18.8857C4.75048 18.8857 0.793536 14.9288 0.793536 10.0476C0.793536 5.1665 4.75048 1.20955 9.63162 1.20955C14.5128 1.20955 18.4697 5.1665 18.4697 10.0476C18.4642 14.9265 14.5105 18.8802 9.63162 18.8857Z" fill="black"/>
<path d="M9.94732 4.3821V2.47213C9.94732 2.2978 9.80598 2.15649 9.63168 2.15649C9.45735 2.15649 9.31605 2.29783 9.31605 2.47213V4.3821C8.53431 4.42382 7.76988 4.62808 7.07147 4.98181L6.11728 3.3307C6.02954 3.181 5.83742 3.13021 5.68717 3.21699C5.53691 3.30377 5.48483 3.49552 5.57061 3.64637L6.52388 5.29719C5.87045 5.72653 5.31187 6.28511 4.88253 6.93853L3.23171 5.98527C3.13398 5.92797 3.01306 5.92746 2.91485 5.98387C2.81665 6.04027 2.75617 6.14499 2.75643 6.25826C2.75669 6.37152 2.81761 6.47598 2.91608 6.53194L4.56785 7.48613C4.21327 8.18472 4.00835 8.94963 3.96622 9.73197H2.05617C1.88184 9.73197 1.74054 9.8733 1.74054 10.0476C1.74054 10.2219 1.88188 10.3632 2.05617 10.3632H3.96614C4.00783 11.145 4.21209 11.9094 4.56586 12.6078L2.91474 13.562C2.81628 13.618 2.75535 13.7225 2.7551 13.8357C2.75484 13.949 2.81532 14.0537 2.91352 14.1101C3.01173 14.1665 3.13265 14.166 3.23038 14.1087L4.8812 13.1554C5.31054 13.8089 5.86912 14.3675 6.52254 14.7968L5.56928 16.4476C5.51198 16.5453 5.51146 16.6663 5.56787 16.7645C5.62428 16.8627 5.729 16.9232 5.84226 16.9229C5.95553 16.9226 6.05999 16.8617 6.11595 16.7632L7.07014 15.1115C7.76877 15.466 8.53364 15.6709 9.31598 15.7131V17.6231C9.31598 17.7975 9.45731 17.9388 9.63161 17.9388C9.80594 17.9388 9.94724 17.7975 9.94724 17.6231V15.7132C12.9603 15.5541 15.3219 13.0646 15.3219 10.0473C15.3219 7.03008 12.9603 4.54056 9.94724 4.3815V4.3821H9.94732ZM4.58136 10.0476C4.58572 7.38382 6.65748 5.18096 9.31605 5.0134V15.0825C6.65722 14.9149 4.58539 12.7117 4.58136 10.0476ZM9.94732 15.0819V5.01277C12.6101 5.17342 14.6873 7.37971 14.6873 10.0473C14.6873 12.715 12.6101 14.9212 9.94732 15.0819Z" fill="black"/>
<path d="M11.2099 7.20683C11.3842 7.20683 11.5256 7.06552 11.5256 6.8912C11.5256 6.71688 11.3842 6.57556 11.2099 6.57556C11.0356 6.57556 10.8943 6.71688 10.8943 6.8912C10.8943 7.06552 11.0356 7.20683 11.2099 7.20683Z" fill="#FDBF00"/>
<path d="M13.1038 10.9945C13.2781 10.9945 13.4194 10.8532 13.4194 10.6789C13.4194 10.5046 13.2781 10.3633 13.1038 10.3633C12.9295 10.3633 12.7881 10.5046 12.7881 10.6789C12.7881 10.8532 12.9295 10.9945 13.1038 10.9945Z" fill="#FDBF00"/>
<path d="M10.8941 10.3633C11.0684 10.3633 11.2098 10.222 11.2098 10.0477C11.2098 9.87337 11.0684 9.73206 10.8941 9.73206C10.7198 9.73206 10.5785 9.87337 10.5785 10.0477C10.5785 10.222 10.7198 10.3633 10.8941 10.3633Z" fill="#FDBF00"/>
<path d="M12.4725 7.52246C11.9495 7.52246 11.5255 7.94644 11.5255 8.4694C11.5255 8.99236 11.9495 9.41634 12.4725 9.41634C12.9954 9.41634 13.4194 8.99236 13.4194 8.4694C13.4194 7.94644 12.9954 7.52246 12.4725 7.52246ZM12.4725 8.78507C12.2981 8.78507 12.1568 8.64373 12.1568 8.46944C12.1568 8.29514 12.2981 8.1538 12.4725 8.1538C12.6468 8.1538 12.7881 8.2951 12.7881 8.46944C12.7881 8.64377 12.6468 8.78507 12.4725 8.78507Z" fill="#FDBF00"/>
<path d="M11.8411 11.6259C11.3181 11.6259 10.8942 12.0498 10.8942 12.5728C10.8942 13.0958 11.3181 13.5197 11.8411 13.5197C12.3641 13.5197 12.788 13.0958 12.788 12.5728C12.788 12.0498 12.3641 11.6259 11.8411 11.6259ZM11.8411 12.8884C11.6668 12.8884 11.5255 12.7471 11.5255 12.5728C11.5255 12.3985 11.6668 12.2572 11.8411 12.2572C12.0154 12.2572 12.1567 12.3985 12.1567 12.5728C12.1567 12.7471 12.0154 12.8884 11.8411 12.8884Z" fill="#FDBF00"/>
</svg>
