<svg width="8" height="9" viewBox="0 0 8 9" fill="none" xmlns="http://www.w3.org/2000/svg">
<path d="M4 0.5C1.80156 0.5 0 2.30156 0 4.5C0 6.69844 1.80156 8.5 4 8.5C6.19844 8.5 8 6.69844 8 4.5C8 2.30156 6.19844 0.5 4 0.5ZM4 7.07812C2.57967 7.07812 1.42188 5.9203 1.42188 4.5C1.42188 3.07967 2.57967 1.92188 4 1.92188C5.42033 1.92188 6.57812 3.07967 6.57812 4.5C6.57812 5.9203 5.42033 7.07812 4 7.07812Z" fill="#FDBF00"/>
<path d="M8 4.5C8 6.69844 6.19844 8.5 4 8.5V7.07812C5.42033 7.07812 6.57812 5.9203 6.57812 4.5C6.57812 3.07967 5.42033 1.92188 4 1.92188V0.5C6.19844 0.5 8 2.30156 8 4.5Z" fill="#FF9100"/>
<path d="M4 1.45312C2.32186 1.45312 0.953125 2.82186 0.953125 4.5C0.953125 6.17811 2.32186 7.54688 4 7.54688C5.67814 7.54688 7.04688 6.17811 7.04688 4.5C7.04688 2.82186 5.67814 1.45312 4 1.45312ZM4 5.69061L2.80939 4.5L4 3.30936L5.19061 4.5L4 5.69061Z" fill="#FFDA2D"/>
<path d="M7.04688 4.5C7.04688 6.17811 5.67814 7.54688 4 7.54688V5.69061L5.19061 4.5L4 3.30936V1.45312C5.67814 1.45312 7.04688 2.82186 7.04688 4.5Z" fill="#FDBF00"/>
<path d="M3.29688 2.39062H4.70312V2.85938H3.29688V2.39062Z" fill="#FDBF00"/>
<path d="M3.29688 6.14062H4.70312V6.60938H3.29688V6.14062Z" fill="#FDBF00"/>
<path d="M1.89062 3.79688H2.35938V5.20312H1.89062V3.79688Z" fill="#FDBF00"/>
<path d="M5.64062 3.79688H6.10938V5.20312H5.64062V3.79688Z" fill="#FF9100"/>
<path d="M4 2.39062H4.70312V2.85938H4V2.39062Z" fill="#FF9100"/>
<path d="M4 6.14062H4.70312V6.60938H4V6.14062Z" fill="#FF9100"/>
</svg>
