<svg width="26" height="26" viewBox="0 0 26 26" fill="none" xmlns="http://www.w3.org/2000/svg">
<g clip-path="url(#clip0)">
<path d="M2.0164 17.5565V5.14262C2.0164 3.25142 3.5208 1.71826 5.37689 1.71826H3.75844C1.90254 1.71826 0.397949 3.25142 0.397949 5.14262V17.5565C0.397949 19.4479 1.90254 20.981 3.75844 20.981H4.15477C4.15477 20.981 2.0164 19.4479 2.0164 17.5565Z" fill="#FFC843"/>
<path d="M22.2416 1.32031H3.75841C1.6861 1.32031 0 3.03497 0 5.14259V17.5564C0 19.6642 1.6861 21.3789 3.75841 21.3789H3.92285L5.40919 24.0023C5.62938 24.3909 6.04079 24.6321 6.48314 24.6321C6.92529 24.6321 7.3367 24.3909 7.55688 24.0023L9.04323 21.3789H22.2416C24.3139 21.3789 26 19.6642 26 17.5564V5.14259C26 3.03497 24.3139 1.32031 22.2416 1.32031ZM25.2042 17.5564C25.2042 19.2253 23.8751 20.5829 22.2416 20.5829H8.57945L6.8644 23.6099C6.78525 23.7496 6.63925 23.8362 6.48314 23.8362C6.32703 23.8362 6.18083 23.7496 6.10168 23.6099L4.38683 20.5829H3.75841C2.12488 20.5829 0.795837 19.2253 0.795837 17.5564V5.14259C0.795837 3.47395 2.12488 2.11615 3.75841 2.11615H22.2416C23.8751 2.11615 25.2042 3.47395 25.2042 5.14259V17.5564Z" fill="white"/>
</g>
<path d="M13.5 5C9.92754 5 7 7.92754 7 11.5C7 15.0725 9.92754 18 13.5 18C17.0725 18 20 15.0725 20 11.5C20 7.92754 17.0725 5 13.5 5ZM13.5 15.6895C11.192 15.6895 9.31055 13.808 9.31055 11.5C9.31055 9.19197 11.192 7.31055 13.5 7.31055C15.808 7.31055 17.6895 9.19197 17.6895 11.5C17.6895 13.808 15.808 15.6895 13.5 15.6895Z" fill="#FDBF00"/>
<path d="M20 11.5C20 15.0725 17.0725 18 13.5 18V15.6895C15.808 15.6895 17.6895 13.808 17.6895 11.5C17.6895 9.19197 15.808 7.31055 13.5 7.31055V5C17.0725 5 20 7.92754 20 11.5Z" fill="#FF9100"/>
<path d="M13.5 6.54883C10.773 6.54883 8.54883 8.77302 8.54883 11.5C8.54883 14.2269 10.773 16.4512 13.5 16.4512C16.227 16.4512 18.4512 14.2269 18.4512 11.5C18.4512 8.77302 16.227 6.54883 13.5 6.54883ZM13.5 13.4347L11.5653 11.5L13.5 9.56521L15.4347 11.5L13.5 13.4347Z" fill="#FFDA2D"/>
<path d="M18.4512 11.5C18.4512 14.2269 16.227 16.4512 13.5 16.4512V13.4347L15.4347 11.5L13.5 9.56521V6.54883C16.227 6.54883 18.4512 8.77302 18.4512 11.5Z" fill="#FDBF00"/>
<path d="M12.3574 8.07227H14.6426V8.83398H12.3574V8.07227Z" fill="#FDBF00"/>
<path d="M12.3574 14.166H14.6426V14.9277H12.3574V14.166Z" fill="#FDBF00"/>
<path d="M10.0723 10.3574H10.834V12.6426H10.0723V10.3574Z" fill="#FDBF00"/>
<path d="M16.166 10.3574H16.9277V12.6426H16.166V10.3574Z" fill="#FF9100"/>
<path d="M13.5 8.07227H14.6426V8.83398H13.5V8.07227Z" fill="#FF9100"/>
<path d="M13.5 14.166H14.6426V14.9277H13.5V14.166Z" fill="#FF9100"/>
<defs>
<clipPath id="clip0">
<rect width="26" height="26" fill="white"/>
</clipPath>
</defs>
</svg>
