<svg width="15" height="15" viewBox="0 0 15 15" fill="none" xmlns="http://www.w3.org/2000/svg">
<path d="M7.76579 12.3357C10.4844 12.3357 12.6883 10.1363 12.6883 7.4232C12.6883 4.71009 10.4844 2.51068 7.76579 2.51068C5.04715 2.51068 2.84326 4.71009 2.84326 7.4232C2.84326 10.1363 5.04715 12.3357 7.76579 12.3357Z" fill="#D1D8E0"/>
<path d="M7.76587 5.67897C8.18669 5.67897 8.52783 5.33852 8.52783 4.91856C8.52783 4.49859 8.18669 4.15814 7.76587 4.15814C7.34505 4.15814 7.00391 4.49859 7.00391 4.91856C7.00391 5.33852 7.34505 5.67897 7.76587 5.67897Z" fill="#A5B1C2"/>
<path d="M7.76587 4.22464C8.17709 4.22464 8.50969 4.5445 8.52783 4.94885C8.52783 4.93678 8.52783 4.92471 8.52783 4.91264C8.52783 4.49622 8.18918 4.15222 7.76587 4.15222C7.3486 4.15222 7.00391 4.49018 7.00391 4.91264C7.00391 4.92471 7.00391 4.93678 7.00391 4.94885C7.0281 4.5445 7.3607 4.22464 7.76587 4.22464Z" fill="#778CA3"/>
<path d="M9.9429 10.6338C10.5508 10.6338 11.0435 10.1421 11.0435 9.53545C11.0435 8.92883 10.5508 8.43707 9.9429 8.43707C9.33505 8.43707 8.84229 8.92883 8.84229 9.53545C8.84229 10.1421 9.33505 10.6338 9.9429 10.6338Z" fill="#A5B1C2"/>
<path d="M9.9429 8.53363C10.5355 8.53363 11.0133 8.99833 11.0435 9.58373C11.0435 9.56563 11.0435 9.55356 11.0435 9.53545C11.0435 8.93195 10.5537 8.43707 9.9429 8.43707C9.33212 8.43707 8.84229 8.92591 8.84229 9.53545C8.84229 9.55356 8.84229 9.56563 8.84229 9.58373C8.87252 8.99833 9.35631 8.53363 9.9429 8.53363Z" fill="#778CA3"/>
<path d="M7.76628 12.4866C10.4849 12.4866 12.6888 10.2872 12.6888 7.57408C12.6888 4.86097 10.4849 2.66156 7.76628 2.66156C5.04764 2.66156 2.84375 4.86097 2.84375 7.57408C2.84375 10.2872 5.04764 12.4866 7.76628 12.4866Z" stroke="url(#paint0_linear)" stroke-width="4" stroke-miterlimit="10"/>
<defs>
<linearGradient id="paint0_linear" x1="7.76862" y1="2.5368" x2="7.76862" y2="12.6065" gradientUnits="userSpaceOnUse">
<stop stop-color="white"/>
<stop offset="1" stop-color="#95A2B8"/>
</linearGradient>
</defs>
</svg>