<svg width="30" height="13" viewBox="0 0 30 13" fill="none" xmlns="http://www.w3.org/2000/svg">
<path d="M23.766 0.545044H6.04129C2.70316 0.545044 0 3.2427 0 6.57404C0 9.90538 2.70316 12.603 6.04129 12.603H23.7721C27.1102 12.603 29.8134 9.90538 29.8134 6.57404C29.8134 3.2427 27.1042 0.545044 23.766 0.545044Z" fill="#212736"/>
<path d="M10.7706 7.98627C10.692 7.98627 10.6255 8.05265 10.6255 8.13111C10.6255 8.20957 10.692 8.27595 10.7706 8.27595C10.8492 8.27595 10.9158 8.20957 10.9158 8.13111C10.9158 8.05265 10.8492 7.98627 10.7706 7.98627Z" fill="white"/>
<path d="M10.7706 3.01337C10.692 3.01337 10.6255 3.07975 10.6255 3.15821C10.6255 3.23666 10.692 3.30304 10.7706 3.30304C10.8492 3.30304 10.9158 3.23666 10.9158 3.15821C10.9158 3.07975 10.8492 3.01337 10.7706 3.01337Z" fill="white"/>
<path d="M16.9269 6.42316C16.8483 6.42316 16.7817 6.48954 16.7817 6.568C16.7817 6.64646 16.8483 6.71284 16.9269 6.71284C17.0055 6.71284 17.072 6.64646 17.072 6.568C17.072 6.48954 17.0055 6.42316 16.9269 6.42316Z" fill="white"/>
<path d="M1.97765 6.42316C1.89904 6.42316 1.83252 6.48954 1.83252 6.568C1.83252 6.64646 1.89904 6.71284 1.97765 6.71284C2.05627 6.71284 2.12279 6.64646 2.12279 6.568C2.12279 6.48954 2.05627 6.42316 1.97765 6.42316Z" fill="white"/>
<path d="M7.74084 6.42316C7.66222 6.42316 7.5957 6.48954 7.5957 6.568C7.5957 6.64646 7.66222 6.71284 7.74084 6.71284C7.81945 6.71284 7.88597 6.64646 7.88597 6.568C7.88597 6.48954 7.8255 6.42316 7.74084 6.42316Z" fill="white"/>
<path opacity="0.4" d="M13.6674 4.67303C13.486 4.67303 13.3408 4.81788 13.3408 4.99893C13.3408 5.17998 13.486 5.32482 13.6674 5.32482C13.8488 5.32482 13.9939 5.17998 13.9939 4.99893C13.9939 4.82391 13.8488 4.67303 13.6674 4.67303Z" fill="white"/>
<path d="M13.6676 4.85406C13.589 4.85406 13.5225 4.92045 13.5225 4.9989C13.5225 5.07736 13.589 5.14374 13.6676 5.14374C13.7462 5.14374 13.8127 5.07736 13.8127 4.9989C13.8127 4.92045 13.7462 4.85406 13.6676 4.85406Z" fill="white"/>
<path d="M16.0256 9.97781L15.7595 9.88729C15.7051 9.86918 15.6627 9.82694 15.6446 9.77262L15.5539 9.50708C15.5418 9.47087 15.4934 9.47087 15.4813 9.50708L15.3906 9.77262C15.3725 9.82694 15.3301 9.86918 15.2757 9.88729L15.0096 9.97781C14.9734 9.98988 14.9734 10.0382 15.0096 10.0502L15.2757 10.1408C15.3301 10.1589 15.3725 10.2011 15.3906 10.2554L15.4813 10.521C15.4934 10.5572 15.5418 10.5572 15.5539 10.521L15.6446 10.2554C15.6627 10.2011 15.7051 10.1589 15.7595 10.1408L16.0256 10.0502C16.0558 10.0382 16.0558 9.98988 16.0256 9.97781Z" fill="white"/>
<path d="M17.8337 3.09182L17.5676 3.00129C17.5132 2.98319 17.4708 2.94095 17.4527 2.88663L17.362 2.62109C17.3499 2.58488 17.3015 2.58488 17.2894 2.62109L17.1987 2.88663C17.1806 2.94095 17.1382 2.98319 17.0838 3.00129L16.8177 3.09182C16.7815 3.10389 16.7815 3.15217 16.8177 3.16424L17.0838 3.25477C17.1382 3.27287 17.1806 3.31512 17.1987 3.36943L17.2894 3.63497C17.3015 3.67118 17.3499 3.67118 17.362 3.63497L17.4527 3.36943C17.4708 3.31512 17.5132 3.27287 17.5676 3.25477L17.8337 3.16424C17.8639 3.15217 17.8639 3.10389 17.8337 3.09182Z" fill="white"/>
<path opacity="0.4" d="M5.69032 9.68817C5.5089 9.68817 5.36377 9.83301 5.36377 10.0141C5.36377 10.1951 5.5089 10.34 5.69032 10.34C5.87174 10.34 6.01687 10.1951 6.01687 10.0141C6.02292 9.83301 5.87174 9.68817 5.69032 9.68817Z" fill="white"/>
<path d="M5.69055 9.8692C5.61193 9.8692 5.54541 9.93559 5.54541 10.014C5.54541 10.0925 5.61193 10.1589 5.69055 10.1589C5.76916 10.1589 5.83568 10.0925 5.83568 10.014C5.83568 9.93559 5.77521 9.8692 5.69055 9.8692Z" fill="white"/>
<path d="M6.20479 3.09182L5.9387 3.00129C5.88428 2.98319 5.84195 2.94095 5.82381 2.88663L5.7331 2.62109C5.721 2.58488 5.67262 2.58488 5.66053 2.62109L5.56982 2.88663C5.55167 2.94095 5.50934 2.98319 5.45492 3.00129L5.18883 3.09182C5.15255 3.10389 5.15255 3.15217 5.18883 3.16424L5.45492 3.25477C5.50934 3.27287 5.55167 3.31512 5.56982 3.36943L5.66053 3.63497C5.67262 3.67118 5.721 3.67118 5.7331 3.63497L5.82381 3.36943C5.84195 3.31512 5.88428 3.27287 5.9387 3.25477L6.20479 3.16424C6.24107 3.15217 6.24107 3.10389 6.20479 3.09182Z" fill="white"/>
</svg>