<svg width="26" height="26" viewBox="0 0 26 26" fill="none" xmlns="http://www.w3.org/2000/svg">
<g clip-path="url(#clip0)">
<path d="M2.0164 17.5565V5.14262C2.0164 3.25142 3.5208 1.71826 5.37689 1.71826H3.75844C1.90254 1.71826 0.397949 3.25142 0.397949 5.14262V17.5565C0.397949 19.4479 1.90254 20.981 3.75844 20.981H4.15477C4.15477 20.981 2.0164 19.4479 2.0164 17.5565Z" fill="#FFC843"/>
<path d="M18.3887 10.3233C18.9748 10.3233 19.4499 9.84817 19.4499 9.26201C19.4499 8.67584 18.9748 8.20076 18.3887 8.20076H16.7748L17.0723 6.51327C17.1741 5.93603 16.7887 5.38557 16.2116 5.28381C15.6344 5.18205 15.0839 5.56747 14.9822 6.14471L14.6196 8.20076H12.5034L12.8009 6.51327C12.9027 5.93603 12.5173 5.38557 11.94 5.28381C11.3632 5.18205 10.8125 5.56747 10.7108 6.14471L10.3482 8.20076H8.35997C7.774 8.20076 7.29892 8.67584 7.29892 9.26201C7.29892 9.84817 7.774 10.3233 8.35997 10.3233H9.97386L9.59975 12.4456H7.61154C7.02538 12.4456 6.55029 12.9208 6.55029 13.5068C6.55029 14.093 7.02538 14.5681 7.61154 14.5681H9.22543L8.94237 16.1732C8.84061 16.7505 9.22603 17.3007 9.80327 17.4025C9.86556 17.4136 9.92744 17.4189 9.98874 17.4189C10.494 17.4189 10.9419 17.0565 11.0325 16.5418L11.3807 14.5681H13.497L13.2139 16.1732C13.1122 16.7505 13.4976 17.3007 14.0748 17.4025C14.1371 17.4136 14.199 17.4189 14.2603 17.4189C14.7655 17.4189 15.2133 17.0565 15.3041 16.5418L15.652 14.5681H17.6402C18.2262 14.5681 18.7013 14.093 18.7013 13.5068C18.7013 12.9208 18.2262 12.4456 17.6402 12.4456H16.0264L16.4007 10.3233H18.3887ZM13.8711 12.4456H11.755L12.1291 10.3233H14.2454L13.8711 12.4456Z" fill="#FFC843"/>
<path d="M22.2416 1.32031H3.75841C1.6861 1.32031 0 3.03497 0 5.14259V17.5564C0 19.6642 1.6861 21.3789 3.75841 21.3789H3.92285L5.40919 24.0023C5.62938 24.3909 6.04079 24.6321 6.48314 24.6321C6.92529 24.6321 7.3367 24.3909 7.55688 24.0023L9.04323 21.3789H22.2416C24.3139 21.3789 26 19.6642 26 17.5564V5.14259C26 3.03497 24.3139 1.32031 22.2416 1.32031ZM25.2042 17.5564C25.2042 19.2253 23.8751 20.5829 22.2416 20.5829H8.57945L6.8644 23.6099C6.78525 23.7496 6.63925 23.8362 6.48314 23.8362C6.32703 23.8362 6.18083 23.7496 6.10168 23.6099L4.38683 20.5829H3.75841C2.12488 20.5829 0.795837 19.2253 0.795837 17.5564V5.14259C0.795837 3.47395 2.12488 2.11615 3.75841 2.11615H22.2416C23.8751 2.11615 25.2042 3.47395 25.2042 5.14259V17.5564Z" fill="#434C54"/>
</g>
<defs>
<clipPath id="clip0">
<rect width="26" height="26" fill="white"/>
</clipPath>
</defs>
</svg>
