<svg width="9" height="9" viewBox="0 0 9 9" fill="none" xmlns="http://www.w3.org/2000/svg">
<path d="M8.25957 3.80751C8.66854 3.80751 9 3.48496 9 3.08699C9 2.68902 8.66854 2.36647 8.25957 2.36647H7.13357L7.34117 1.22078C7.41216 0.828878 7.14326 0.455152 6.74066 0.386063C6.33792 0.316975 5.95387 0.57865 5.88287 0.970557L5.62988 2.36647H4.15345L4.36105 1.22078C4.43205 0.828878 4.16314 0.455152 3.7604 0.386063C3.35794 0.316975 2.97375 0.57865 2.90275 0.970557L2.64976 2.36647H1.2626C0.853775 2.36647 0.522313 2.68902 0.522313 3.08699C0.522313 3.48496 0.853775 3.80751 1.2626 3.80751H2.38861L2.12759 5.2484H0.740427C0.331462 5.2484 0 5.57109 0 5.96892C0 6.36689 0.331462 6.68944 0.740427 6.68944H1.86643L1.66894 7.77924C1.59794 8.17114 1.86685 8.54473 2.26958 8.61382C2.31304 8.62136 2.35622 8.625 2.39899 8.625C2.75148 8.625 3.06399 8.37895 3.12723 8.02946L3.37012 6.68944H4.84669L4.64919 7.77924C4.57819 8.17114 4.8471 8.54473 5.24984 8.61382C5.2933 8.62136 5.33648 8.625 5.37924 8.625C5.73174 8.625 6.0441 8.37895 6.10749 8.02946L6.35024 6.68944H7.7374C8.14622 6.68944 8.47769 6.36689 8.47769 5.96892C8.47769 5.57109 8.14622 5.2484 7.7374 5.2484H6.61139L6.87255 3.80751H8.25957ZM5.1077 5.2484H3.63128L3.8923 3.80751H5.36886L5.1077 5.2484Z" fill="#FFC843"/>
</svg>
