<svg width="12" height="12" viewBox="0 0 12 12" fill="none" xmlns="http://www.w3.org/2000/svg">
<path d="M3.1953 7.07394C3.16354 7.19647 3.06219 7.22672 2.96991 7.13974L1.16826 5.45911C1.07523 5.37289 1.09641 5.26322 1.21365 5.21632L3.74064 4.20658C3.85863 4.15969 3.92897 4.22171 3.89721 4.34424L3.1953 7.07394Z" fill="white"/>
<path d="M1.70682 8.6721C1.61076 8.75455 1.51394 8.72051 1.49125 8.59571L0.997352 5.86374C0.974661 5.73895 1.03214 5.70793 1.12518 5.79416L2.83984 7.39386C2.93287 7.48008 2.92985 7.6185 2.83379 7.7017L1.70682 8.6721Z" fill="white"/>
<path d="M3.77469 3.66287C3.85713 3.75893 3.82839 3.87617 3.71115 3.92306L1.19853 4.9275C1.08054 4.9744 1.02079 4.91616 1.06466 4.79665L2.09633 2.02384C2.1402 1.90509 2.24457 1.88619 2.32702 1.98224L3.77469 3.66287Z" fill="white"/>
<path d="M1.14254 8.2071C1.16523 8.3319 1.12742 8.34703 1.05859 8.24038L0.0836418 6.73598C0.0148132 6.62934 0.0201077 6.45916 0.0964999 6.35781L0.531406 5.77465C0.607042 5.6733 0.687216 5.69221 0.709907 5.81701L1.14254 8.2071Z" fill="white"/>
<path d="M0.835474 4.62662C0.791605 4.74537 0.72202 4.74385 0.681933 4.62359L0.349135 3.6252C0.309805 3.50494 0.353673 3.33703 0.447462 3.25232L1.63419 2.17677C1.72798 2.09131 1.76882 2.11929 1.7242 2.23804L0.835474 4.62662Z" fill="white"/>
<path d="M0.522345 5.01235C0.562433 5.13261 0.532934 5.31414 0.457299 5.41549L0.116181 5.87233C0.0405451 5.97368 -0.0108873 5.95402 0.0019708 5.82771L0.165344 4.24238C0.178202 4.11607 0.222071 4.11153 0.262158 4.23179L0.522345 5.01235Z" fill="white"/>
<path d="M1.86186 1.44147C1.90422 1.49063 1.86186 1.6003 1.76807 1.68501L1.23408 2.16908C1.1403 2.25455 1.12517 2.24018 1.2008 2.13883L1.64781 1.53752C1.72269 1.43542 1.81951 1.3923 1.86186 1.44147Z" fill="white"/>
<path d="M5.22992 9.87937C5.16563 9.98904 5.0552 9.99283 4.98335 9.88845L3.58787 7.85763C3.51601 7.75325 3.56064 7.65719 3.68619 7.64433L6.49001 7.35465C6.61633 7.34179 6.667 7.42045 6.60271 7.53012L5.22992 9.87937Z" fill="white"/>
<path d="M4.64525 9.88152C4.71711 9.9859 4.67778 10.0381 4.55752 9.99724L1.92917 9.10398C1.80891 9.06314 1.78924 8.96179 1.8853 8.87934L3.01152 7.90894C3.10758 7.82649 3.24523 7.84389 3.31633 7.94827L4.64525 9.88152Z" fill="white"/>
<path d="M6.54827 6.88351C6.63071 6.97956 6.59516 7.06881 6.4696 7.08167L3.62418 7.37514C3.49787 7.388 3.42072 7.29875 3.45249 7.17546L4.16422 4.40492C4.19599 4.28239 4.28902 4.26045 4.37222 4.35651L6.54827 6.88351Z" fill="white"/>
<path d="M8.59346 9.25768C8.6759 9.35373 8.64262 9.45357 8.51858 9.48005L5.62324 10.0897C5.4992 10.1161 5.45003 10.0473 5.51432 9.9384L6.88031 7.60201C6.94384 7.49234 7.0641 7.48175 7.1473 7.5778L8.59346 9.25768Z" fill="white"/>
<path d="M3.9358 10.8157C3.82386 10.8755 3.65519 10.8558 3.55989 10.7718L2.21584 9.58512C2.12054 9.50116 2.14096 9.46561 2.26123 9.50646L4.56131 10.2878C4.68157 10.3286 4.68838 10.4111 4.57644 10.4708L3.9358 10.8157Z" fill="white"/>
<path d="M7.05956 10.9283C6.96124 11.0085 6.78879 11.0274 6.67609 10.9699L5.73745 10.4927C5.62475 10.4352 5.63383 10.3671 5.75787 10.3407L8.25234 9.81575C8.37638 9.78927 8.39756 9.8339 8.29924 9.91407L7.05956 10.9283Z" fill="white"/>
<path d="M4.44633 10.9868C4.32002 10.9807 4.30792 10.927 4.4191 10.8673L4.92133 10.598C5.03327 10.5383 5.21706 10.536 5.32976 10.5935L6.06343 10.9664C6.17613 11.0239 6.16554 11.0662 6.03847 11.0602L4.44633 10.9868Z" fill="white"/>
<path d="M9.05937 9.79864C9.10173 9.8478 9.04424 9.93629 8.93306 9.99605L8.272 10.3493C8.16006 10.409 8.14871 10.3924 8.24704 10.3122L8.80448 9.85612C8.90205 9.77519 9.01701 9.74947 9.05937 9.79864Z" fill="white"/>
<path d="M7.38856 6.85401C7.27057 6.9009 7.20023 6.83888 7.232 6.71635L7.9339 3.98665C7.96566 3.86412 8.06702 3.83387 8.16005 3.92085L9.96169 5.60148C10.0547 5.6877 10.0335 5.79738 9.91631 5.84427L7.38856 6.85401Z" fill="white"/>
<path d="M10.1311 5.19684C10.1538 5.32164 10.0963 5.35265 10.0041 5.26643L8.28941 3.66673C8.19713 3.5805 8.1994 3.44209 8.29546 3.35889L9.42167 2.38848C9.51773 2.30604 9.61455 2.34008 9.63724 2.46487L10.1311 5.19684Z" fill="white"/>
<path d="M9.03213 9.03683C8.98826 9.15557 8.88389 9.17448 8.80144 9.07843L7.35377 7.3978C7.27133 7.30174 7.29931 7.1845 7.41731 7.13761L9.92993 6.13316C10.0479 6.08627 10.1077 6.14451 10.0638 6.26326L9.03213 9.03683Z" fill="white"/>
<path d="M11.0456 4.32479C11.1144 4.43143 11.1091 4.60162 11.0327 4.70297L10.5978 5.28612C10.5222 5.38747 10.4412 5.36856 10.4193 5.24376L9.98743 2.85291C9.96474 2.72812 10.0026 2.71299 10.0714 2.81963L11.0456 4.32479Z" fill="white"/>
<path d="M10.7793 7.43549C10.8194 7.55575 10.7756 7.72366 10.6818 7.80913L9.49504 8.88467C9.40125 8.96939 9.36041 8.94216 9.40503 8.82341L10.2938 6.43407C10.3376 6.31532 10.4072 6.31684 10.4465 6.4371L10.7793 7.43549Z" fill="white"/>
<path d="M10.9631 6.81849C10.9503 6.9448 10.9064 6.94934 10.8663 6.82908L10.6061 6.04852C10.566 5.92826 10.5955 5.74673 10.6712 5.64538L11.0123 5.18854C11.0879 5.08719 11.1394 5.10685 11.1265 5.23316L10.9631 6.81849Z" fill="white"/>
<path d="M9.48141 9.52318C9.40578 9.62529 9.30972 9.6684 9.26736 9.61924C9.22501 9.57008 9.26736 9.4604 9.36115 9.37569L9.89514 8.89162C9.98893 8.80615 10.0041 8.81977 9.92842 8.92188L9.48141 9.52318Z" fill="white"/>
<path d="M7.54136 3.20306C7.61321 3.30744 7.56859 3.4035 7.44227 3.41635L4.63845 3.70604C4.51214 3.7189 4.46147 3.64024 4.52576 3.53056L5.8993 1.18131C5.96359 1.07164 6.07402 1.06786 6.14588 1.17224L7.54136 3.20306Z" fill="white"/>
<path d="M8.1162 3.15078C8.02014 3.23322 7.88324 3.21583 7.81138 3.11145L6.48322 1.17895C6.41136 1.07458 6.45069 1.02239 6.57096 1.06323L9.1993 1.95649C9.31956 1.99733 9.33923 2.09793 9.24317 2.18113L8.1162 3.15078Z" fill="white"/>
<path d="M6.96423 6.65578C6.93247 6.77831 6.83944 6.80024 6.75624 6.70419L4.58019 4.17719C4.49775 4.08113 4.53254 3.99188 4.65885 3.97903L7.50427 3.68556C7.63059 3.6727 7.70774 3.76195 7.67597 3.88524L6.96423 6.65578Z" fill="white"/>
<path d="M4.24966 3.4594C4.18537 3.56907 4.06587 3.57966 3.98267 3.4836L2.535 1.80298C2.45255 1.70692 2.48583 1.60708 2.60987 1.58136L5.50522 0.971737C5.62926 0.945265 5.67842 1.01409 5.61413 1.12301L4.24966 3.4594Z" fill="white"/>
<path d="M6.56715 0.772201C6.44689 0.731357 6.44009 0.648914 6.55203 0.589162L7.19342 0.245019C7.30536 0.185266 7.47403 0.204932 7.56933 0.288887L8.91338 1.47561C9.00868 1.55957 8.98826 1.59512 8.868 1.55428L6.56715 0.772201Z" fill="white"/>
<path d="M2.87688 1.24487C2.75284 1.27059 2.73166 1.22672 2.82998 1.14655L4.06966 0.132268C4.16798 0.0520941 4.34043 0.0331852 4.45313 0.0906684L5.39177 0.567931C5.50447 0.625414 5.49539 0.693486 5.37211 0.719959L2.87688 1.24487Z" fill="white"/>
<path d="M6.20715 0.462711C6.09521 0.522463 5.91141 0.524732 5.79872 0.467249L5.06505 0.0943641C4.95235 0.0368809 4.96294 -0.0054752 5.09001 0.000575668L6.68214 0.0739425C6.80845 0.0799933 6.82131 0.133695 6.70937 0.193447L6.20715 0.462711Z" fill="white"/>
<path d="M2.32475 1.2055C2.22642 1.28567 2.11221 1.31139 2.06986 1.26222C2.0275 1.21306 2.08423 1.12457 2.19617 1.06481L2.85723 0.711594C2.96917 0.651841 2.98051 0.668481 2.88219 0.749412L2.32475 1.2055Z" fill="white"/>
<path d="M1.47534 9.23349C1.52451 9.19113 1.63418 9.23349 1.71889 9.32728L2.20296 9.86126C2.28843 9.95505 2.27481 9.97018 2.1727 9.89454L1.5714 9.44754C1.47005 9.3719 1.42694 9.27509 1.47534 9.23349Z" fill="white"/>
<path d="M9.83236 2.03519C9.88152 1.99284 9.97002 2.05032 10.0298 2.16151L10.383 2.82256C10.4427 2.9345 10.4261 2.94585 10.3459 2.84752L9.88984 2.29009C9.80891 2.19252 9.78319 2.07755 9.83236 2.03519Z" fill="white"/>
<path d="M9.55706 1.61311C9.65841 1.68875 9.70152 1.78481 9.65311 1.82716C9.60395 1.86952 9.49428 1.82716 9.40957 1.73338L8.9255 1.19939C8.84003 1.1056 8.85364 1.09047 8.95575 1.16611L9.55706 1.61311Z" fill="white"/>
<path d="M1.23937 8.77063C1.31954 8.86896 1.34526 8.98317 1.2961 9.02553C1.24693 9.06788 1.15844 9.0104 1.09869 8.89922L0.745468 8.23816C0.685716 8.12622 0.702356 8.11487 0.783286 8.2132L1.23937 8.77063Z" fill="white"/>
</svg>
