<svg width="10" height="9" viewBox="0 0 10 9" fill="none" xmlns="http://www.w3.org/2000/svg">
<path d="M5 0C2.51465 0 0.5 2.01472 0.5 4.5C0.5 6.98586 2.51748 9 5 9H6.49999C6.65915 9 6.81169 8.93679 6.92419 8.82425C7.03683 8.71174 7.09999 8.55912 7.09999 8.39999C7.09999 8.06862 6.83134 7.79999 6.49999 7.79999H5C3.17734 7.79999 1.70001 6.32099 1.70001 4.5C1.70001 2.67745 3.1775 1.20001 5 1.20001C6.8225 1.20001 8.29999 2.67745 8.29999 4.5V4.80001C8.29999 5.13199 8.0304 5.4 7.7 5.4C7.36929 5.4 7.10001 5.1317 7.10001 4.80001V4.5C7.10001 3.34099 6.15905 2.39999 5 2.39999C3.84095 2.39999 2.89999 3.34099 2.89999 4.5C2.89999 5.65901 3.84095 6.60001 5 6.60001C5.57945 6.60001 6.10445 6.36476 6.4847 5.98465C6.67326 6.17324 7.02213 6.60001 7.7 6.60001C8.69404 6.60001 9.5 5.79412 9.5 4.80001V4.5C9.5 2.01472 7.48535 0 5 0ZM5 5.4C4.50335 5.4 4.1 4.99672 4.1 4.5C4.1 4.00328 4.50335 3.6 5 3.6C5.49665 3.6 5.9 4.00328 5.9 4.5C5.9 4.99672 5.49665 5.4 5 5.4Z" fill="#FFC843"/>
<path d="M6.49999 7.79999H5V8.99999H6.49999C6.65915 8.99999 6.81169 8.93678 6.92419 8.82425C7.03683 8.71173 7.09999 8.55912 7.09999 8.39998C7.10001 8.06863 6.83134 7.79999 6.49999 7.79999Z" fill="#FF8700"/>
<path d="M5 0V1.20001C6.8225 1.20001 8.29999 2.67746 8.29999 4.5V4.80001C8.29999 5.13199 8.0304 5.4 7.7 5.4C7.36929 5.4 7.10001 5.1317 7.10001 4.80001V4.5C7.10001 3.34099 6.15905 2.39999 5 2.39999V3.6C5.49665 3.6 5.9 4.00328 5.9 4.5C5.9 4.99672 5.49665 5.4 5 5.4V6.60001C5.57945 6.60001 6.10445 6.36476 6.4847 5.98465C6.67326 6.17324 7.02213 6.60001 7.7 6.60001C8.69404 6.60001 9.5 5.79412 9.5 4.80001V4.5C9.5 2.01472 7.48535 0 5 0Z" fill="#FF8700"/>
</svg>
