<svg width="26" height="26" viewBox="0 0 26 26" fill="none" xmlns="http://www.w3.org/2000/svg">
<g clip-path="url(#clip0)">
<path d="M2.0164 17.5565V5.14262C2.0164 3.25142 3.5208 1.71826 5.37689 1.71826H3.75844C1.90254 1.71826 0.397949 3.25142 0.397949 5.14262V17.5565C0.397949 19.4479 1.90254 20.981 3.75844 20.981H4.15477C4.15477 20.981 2.0164 19.4479 2.0164 17.5565Z" fill="#FFC843"/>
<path d="M22.2416 1.32031H3.75841C1.6861 1.32031 0 3.03497 0 5.14259V17.5564C0 19.6642 1.6861 21.3789 3.75841 21.3789H3.92285L5.40919 24.0023C5.62938 24.3909 6.04079 24.6321 6.48314 24.6321C6.92529 24.6321 7.3367 24.3909 7.55688 24.0023L9.04323 21.3789H22.2416C24.3139 21.3789 26 19.6642 26 17.5564V5.14259C26 3.03497 24.3139 1.32031 22.2416 1.32031ZM25.2042 17.5564C25.2042 19.2253 23.8751 20.5829 22.2416 20.5829H8.57945L6.8644 23.6099C6.78525 23.7496 6.63925 23.8362 6.48314 23.8362C6.32703 23.8362 6.18083 23.7496 6.10168 23.6099L4.38683 20.5829H3.75841C2.12488 20.5829 0.795837 19.2253 0.795837 17.5564V5.14259C0.795837 3.47395 2.12488 2.11615 3.75841 2.11615H22.2416C23.8751 2.11615 25.2042 3.47395 25.2042 5.14259V17.5564Z" fill="white"/>
<path d="M13.5 5C9.91004 5 7 7.91015 7 11.5C7 15.0907 9.91413 18 13.5 18H15.6667C15.8965 18 16.1169 17.9087 16.2794 17.7461C16.4421 17.5836 16.5333 17.3632 16.5333 17.1333C16.5333 16.6547 16.1453 16.2667 15.6667 16.2667H13.5C10.8673 16.2667 8.73334 14.1303 8.73334 11.5C8.73334 8.86742 10.8675 6.73334 13.5 6.73334C16.1325 6.73334 18.2667 8.86742 18.2667 11.5V11.9333C18.2667 12.4129 17.8772 12.8 17.4 12.8C16.9223 12.8 16.5333 12.4125 16.5333 11.9333V11.5C16.5333 9.82587 15.1742 8.46666 13.5 8.46666C11.8258 8.46666 10.4667 9.82587 10.4667 11.5C10.4667 13.1741 11.8258 14.5333 13.5 14.5333C14.337 14.5333 15.0953 14.1935 15.6446 13.6445C15.9169 13.9169 16.4209 14.5333 17.4 14.5333C18.8358 14.5333 20 13.3693 20 11.9333V11.5C20 7.91015 17.09 5 13.5 5ZM13.5 12.8C12.7826 12.8 12.2 12.2175 12.2 11.5C12.2 10.7825 12.7826 10.2 13.5 10.2C14.2174 10.2 14.8 10.7825 14.8 11.5C14.8 12.2175 14.2174 12.8 13.5 12.8Z" fill="#FFC843"/>
<path d="M15.6667 16.2666H13.5V17.9999H15.6667C15.8965 17.9999 16.1169 17.9086 16.2794 17.7461C16.4421 17.5836 16.5333 17.3631 16.5333 17.1333C16.5333 16.6546 16.1453 16.2666 15.6667 16.2666V16.2666Z" fill="#FF8700"/>
<path d="M13.5 5V6.73334C16.1325 6.73334 18.2667 8.86745 18.2667 11.5V11.9333C18.2667 12.4129 17.8772 12.8 17.4 12.8C16.9223 12.8 16.5333 12.4125 16.5333 11.9333V11.5C16.5333 9.82587 15.1742 8.46666 13.5 8.46666V10.2C14.2174 10.2 14.8 10.7825 14.8 11.5C14.8 12.2175 14.2174 12.8 13.5 12.8V14.5333C14.337 14.5333 15.0953 14.1935 15.6446 13.6445C15.9169 13.9169 16.4209 14.5333 17.4 14.5333C18.8358 14.5333 20 13.3693 20 11.9333V11.5C20 7.91015 17.09 5 13.5 5V5Z" fill="#FF8700"/>
</g>
<defs>
<clipPath id="clip0">
<rect width="26" height="26" fill="white"/>
</clipPath>
</defs>
</svg>
