<svg width="20" height="20" viewBox="0 0 20 20" fill="none" xmlns="http://www.w3.org/2000/svg">
<path d="M10 15V5L5.8 6.11111L4 9.44444L5.8 13.3333L8.2 15H10Z" fill="#FFC542"/>
<path d="M10.0476 0.578247C4.81783 0.578247 0.578247 4.81783 0.578247 10.0476C0.578247 15.2774 4.81783 19.517 10.0476 19.517C15.2774 19.517 19.517 15.2774 19.517 10.0476C19.5111 4.82027 15.275 0.584165 10.0476 0.578247ZM10.0476 18.8857C5.1665 18.8857 1.20955 14.9288 1.20955 10.0476C1.20955 5.1665 5.1665 1.20955 10.0476 1.20955C14.9288 1.20955 18.8857 5.1665 18.8857 10.0476C18.8802 14.9265 14.9265 18.8802 10.0476 18.8857Z" fill="black"/>
<path d="M10.3633 4.38216V2.47219C10.3633 2.29786 10.222 2.15656 10.0477 2.15656C9.87337 2.15656 9.73207 2.29789 9.73207 2.47219V4.38216C8.95032 4.42388 8.18589 4.62814 7.48749 4.98187L6.5333 3.33076C6.44556 3.18106 6.25343 3.13027 6.10318 3.21705C5.95293 3.30383 5.90085 3.49559 5.98663 3.64643L6.93989 5.29725C6.28647 5.72659 5.72788 6.28517 5.29854 6.9386L3.64772 5.98533C3.55 5.92803 3.42908 5.92752 3.33087 5.98393C3.23266 6.04034 3.17218 6.14505 3.17244 6.25832C3.1727 6.37158 3.23362 6.47604 3.33209 6.532L4.98387 7.48619C4.62929 8.18478 4.42436 8.94969 4.38223 9.73203H2.47219C2.29786 9.73203 2.15656 9.87337 2.15656 10.0477C2.15656 10.222 2.29789 10.3633 2.47219 10.3633H4.38216C4.42384 11.145 4.6281 11.9095 4.98187 12.6079L3.33076 13.5621C3.23229 13.6181 3.17137 13.7225 3.17111 13.8358C3.17085 13.949 3.23133 14.0538 3.32954 14.1102C3.42775 14.1666 3.54867 14.1661 3.64639 14.1088L5.29721 13.1555C5.72655 13.8089 6.28513 14.3675 6.93856 14.7969L5.9853 16.4477C5.928 16.5454 5.92748 16.6663 5.98389 16.7645C6.0403 16.8627 6.14502 16.9232 6.25828 16.923C6.37154 16.9227 6.476 16.8618 6.53197 16.7633L7.48616 15.1115C8.18478 15.4661 8.94966 15.671 9.73199 15.7132V17.6232C9.73199 17.7975 9.87333 17.9388 10.0476 17.9388C10.222 17.9388 10.3633 17.7975 10.3633 17.6232V15.7132C13.3763 15.5541 15.7379 13.0647 15.7379 10.0474C15.7379 7.03015 13.3763 4.54062 10.3633 4.38157V4.38216H10.3633ZM4.99737 10.0477C5.00174 7.38388 7.0735 5.18103 9.73207 5.01346V15.0826C7.07324 14.915 5.0014 12.7118 4.99737 10.0477ZM10.3633 15.0819V5.01283C13.0261 5.17348 15.1033 7.37977 15.1033 10.0474C15.1033 12.715 13.0261 14.9213 10.3633 15.0819V15.0819Z" fill="black"/>
<path d="M11.6259 7.20677C11.8003 7.20677 11.9416 7.06545 11.9416 6.89113C11.9416 6.71681 11.8003 6.5755 11.6259 6.5755C11.4516 6.5755 11.3103 6.71681 11.3103 6.89113C11.3103 7.06545 11.4516 7.20677 11.6259 7.20677Z" fill="black"/>
<path d="M13.5198 10.9945C13.6941 10.9945 13.8354 10.8532 13.8354 10.6789C13.8354 10.5046 13.6941 10.3633 13.5198 10.3633C13.3455 10.3633 13.2042 10.5046 13.2042 10.6789C13.2042 10.8532 13.3455 10.9945 13.5198 10.9945Z" fill="black"/>
<path d="M11.3102 10.3633C11.4845 10.3633 11.6258 10.222 11.6258 10.0477C11.6258 9.87337 11.4845 9.73206 11.3102 9.73206C11.1359 9.73206 10.9946 9.87337 10.9946 10.0477C10.9946 10.222 11.1359 10.3633 11.3102 10.3633Z" fill="black"/>
<path d="M12.8885 7.5224C12.3655 7.5224 11.9415 7.94638 11.9415 8.46934C11.9415 8.9923 12.3655 9.41628 12.8885 9.41628C13.4114 9.41628 13.8354 8.9923 13.8354 8.46934C13.8354 7.94638 13.4115 7.5224 12.8885 7.5224ZM12.8885 8.78501C12.7141 8.78501 12.5728 8.64367 12.5728 8.46938C12.5728 8.29508 12.7141 8.15374 12.8885 8.15374C13.0628 8.15374 13.2041 8.29504 13.2041 8.46938C13.2041 8.64371 13.0628 8.78501 12.8885 8.78501Z" fill="black"/>
<path d="M12.2571 11.6259C11.7342 11.6259 11.3102 12.0498 11.3102 12.5728C11.3102 13.0958 11.7342 13.5197 12.2571 13.5197C12.7801 13.5197 13.2041 13.0958 13.2041 12.5728C13.2041 12.0498 12.7801 11.6259 12.2571 11.6259ZM12.2571 12.8884C12.0828 12.8884 11.9415 12.7471 11.9415 12.5728C11.9415 12.3985 12.0828 12.2572 12.2571 12.2572C12.4315 12.2572 12.5728 12.3985 12.5728 12.5728C12.5728 12.7471 12.4315 12.8884 12.2571 12.8884Z" fill="black"/>
</svg>
