<svg width="13" height="10" viewBox="0 0 13 10" fill="none" xmlns="http://www.w3.org/2000/svg">
<path d="M9.01367 0.961538C9.46367 0.961538 9.85524 1.12632 10.1775 1.45132L10.4366 1.71269L10.4679 1.82736L10.4744 1.85099L10.6641 2.54522V2.83654C10.6641 3.55798 10.5148 4.31558 10.2324 5.0274C9.93566 5.77551 9.50851 6.45053 8.96286 7.0337C8.10713 7.94827 6.56675 9.03846 4.08789 9.03846C4.01504 9.03846 3.94233 9.03726 3.86961 9.03488C4.10894 8.90344 4.33895 8.75712 4.55782 8.59647L4.95117 8.30776V7.83654V7.74038V6.77885L4.53273 6.77445C4.07522 6.76964 3.70703 6.41716 3.70703 5.98399V5.19779L3.15778 5.08036C2.91477 5.02839 2.74219 4.82399 2.74219 4.58813V3.99038V3.91827L2.72949 3.42815L2.27782 3.14264C2.08277 2.98728 1.906 2.76538 1.78006 2.52524C3.11279 3.44538 4.69559 3.99601 6.34052 4.08498L7.41406 4.14303V3.125V3.10096V2.98738L7.38611 2.87692C7.35412 2.7505 7.33789 2.63178 7.33789 2.52404C7.33789 2.11 7.51238 1.71904 7.8292 1.42315C8.14793 1.12548 8.5686 0.961538 9.01367 0.961538ZM9.01367 0C7.54165 0 6.32227 1.12829 6.32227 2.52404C6.32227 2.72264 6.3519 2.91707 6.39844 3.10096V3.125C4.20451 3.00635 2.21807 1.95 0.914062 0.432692C0.685217 0.80601 0.558594 1.33947 0.558594 1.80288C0.558594 2.52404 1.0109 3.48993 1.72656 3.94231V3.99038C1.29924 3.97406 0.861555 3.69536 0.507812 3.50962C0.507812 3.52065 0.523301 3.53392 0.523301 3.54495C0.523301 4.76969 1.47149 5.82599 2.69141 6.05769C2.47881 6.11094 2.17938 6.15385 1.95508 6.15385C1.78247 6.15385 1.61017 6.11115 1.44727 6.08173C1.78666 7.08579 2.76758 7.74038 3.93555 7.74038V7.76442C3.02644 8.43168 1.87413 8.89423 0.634766 8.89423C0.419479 8.89423 0.152344 8.87019 0 8.84615C1.17917 9.56334 2.58096 10 4.08789 10C8.9927 10 11.6797 6.17788 11.6797 2.83654V2.5C12.2014 2.14325 12.6431 1.66139 13 1.15385C13 1.15385 12.0639 1.57377 11.4576 1.61017L11.4512 1.58654C12.002 1.27392 12.4467 0.758558 12.6445 0.168269C12.1286 0.458822 11.525 0.679255 10.918 0.793269C10.4312 0.30226 9.78169 0 9.01367 0ZM12.6445 0.168269H12.6447H12.6445Z" fill="#0F0F0F"/>
</svg>
