<svg width="13" height="13" viewBox="0 0 13 13" fill="none" xmlns="http://www.w3.org/2000/svg">
<path d="M13 7.31694V2.95959C13 1.32227 11.6749 0 10.0404 0H2.95959C1.32227 0 0 1.32506 0 2.95959V12.4915C0 12.773 0.228832 13 0.508384 13C0.625183 13 0.740924 12.9597 0.834019 12.882L3.96073 10.2765H10.0404C11.6723 10.2765 13 8.94896 13 7.31694ZM6.5 8.09785C6.21926 8.09785 5.99148 7.87008 5.99148 7.58934C5.99148 7.30859 6.21926 7.08082 6.5 7.08082C6.78061 7.08082 7.00852 7.30859 7.00852 7.58934C7.00852 7.87008 6.78061 8.09785 6.5 8.09785ZM7.00852 5.84886V5.95533C7.00852 6.23608 6.78074 6.46385 6.5 6.46385C6.21912 6.46385 5.99148 6.23608 5.99148 5.95533V5.41066C5.99148 5.12979 6.21912 4.90215 6.5 4.90215C6.97038 4.90215 7.35309 4.5193 7.35309 4.04893C7.35309 3.57842 6.97038 3.19571 6.5 3.19571C6.2717 3.19571 6.05756 3.28443 5.89653 3.44546C5.7355 3.60649 5.64678 3.82062 5.64678 4.04826C5.64678 4.32914 5.41914 4.55718 5.13826 4.55718C4.85739 4.55718 4.62975 4.32967 4.62975 4.04893V4.04826C4.62975 3.54902 4.82428 3.07944 5.17733 2.72639C5.53051 2.37321 5.99996 2.17867 6.49934 2.17867C7.5312 2.17867 8.37012 3.01772 8.37012 4.04893C8.37012 4.904 7.79341 5.62692 7.00852 5.84886Z" fill="#FDBF00"/>
</svg>
