<svg width="31" height="13" viewBox="0 0 31 13" fill="none" xmlns="http://www.w3.org/2000/svg">
<mask id="mask0" mask-type="alpha" maskUnits="userSpaceOnUse" x="0" y="0" width="31" height="13">
<path d="M6.23562 12.2294H23.9664C27.3045 12.2294 30.0077 9.53179 30.0077 6.20045C30.0077 2.86911 27.3045 0.171448 23.9664 0.171448H6.23562C2.89749 0.171448 0.194336 2.86911 0.194336 6.20045C0.194336 9.53179 2.89749 12.2294 6.23562 12.2294Z" fill="#45AAF2"/>
</mask>
<g mask="url(#mask0)">
<path d="M6.23562 12.2294H23.9664C27.3045 12.2294 30.0077 9.53179 30.0077 6.20045C30.0077 2.86911 27.3045 0.171448 23.9664 0.171448H6.23562C2.89749 0.171448 0.194336 2.86911 0.194336 6.20045C0.194336 9.53179 2.89749 12.2294 6.23562 12.2294Z" fill="#45AAF2"/>
<g opacity="0.5">
<path opacity="0.5" d="M-2.4585 -2.49603V4.79429C-0.438687 4.79429 1.19409 3.16483 1.19409 1.14913C1.19409 -0.866573 -0.438687 -2.49603 -2.4585 -2.49603Z" fill="white"/>
<path opacity="0.5" d="M3.80043 9.07314C5.78096 9.07314 7.3865 7.47087 7.3865 5.49437C7.3865 3.51786 5.78096 1.91559 3.80043 1.91559C1.8199 1.91559 0.214355 3.51786 0.214355 5.49437C0.214355 7.47087 1.8199 9.07314 3.80043 9.07314Z" fill="white"/>
<path opacity="0.5" d="M15.7983 13.696C17.879 13.696 19.5657 12.0127 19.5657 9.93616C19.5657 7.85966 17.879 6.17633 15.7983 6.17633C13.7175 6.17633 12.0308 7.85966 12.0308 9.93616C12.0308 12.0127 13.7175 13.696 15.7983 13.696Z" fill="white"/>
<path opacity="0.5" d="M26.6657 7.26863C27.6743 7.26863 28.4919 6.45263 28.4919 5.44605C28.4919 4.43947 27.6743 3.62347 26.6657 3.62347C25.657 3.62347 24.8394 4.43947 24.8394 5.44605C24.8394 6.45263 25.657 7.26863 26.6657 7.26863Z" fill="white"/>
<path opacity="0.5" d="M29.9373 6.7255C31.9545 6.7255 33.5898 5.09351 33.5898 3.08034C33.5898 1.06718 31.9545 -0.564819 29.9373 -0.564819C27.92 -0.564819 26.2847 1.06718 26.2847 3.08034C26.2847 5.09351 27.92 6.7255 29.9373 6.7255Z" fill="white"/>
<path opacity="0.5" d="M11.6074 10.2801C12.5258 10.2801 13.2704 9.5371 13.2704 8.62051C13.2704 7.70392 12.5258 6.96088 11.6074 6.96088C10.6889 6.96088 9.94434 7.70392 9.94434 8.62051C9.94434 9.5371 10.6889 10.2801 11.6074 10.2801Z" fill="white"/>
<path opacity="0.5" d="M23.43 10.0689C25.0933 10.0689 26.4416 8.7233 26.4416 7.06343C26.4416 5.40357 25.0933 4.05798 23.43 4.05798C21.7668 4.05798 20.4185 5.40357 20.4185 7.06343C20.4185 8.7233 21.7668 10.0689 23.43 10.0689Z" fill="white"/>
<path opacity="0.5" d="M9.4187 9.68267C10.6377 9.68267 11.626 8.69645 11.626 7.47989C11.626 6.26332 10.6377 5.2771 9.4187 5.2771C8.19966 5.2771 7.21143 6.26332 7.21143 7.47989C7.21143 8.69645 8.19966 9.68267 9.4187 9.68267Z" fill="white"/>
<path opacity="0.5" d="M6.89038 10.0388C8.10943 10.0388 9.09766 9.05253 9.09766 7.83597C9.09766 6.6194 8.10943 5.63318 6.89038 5.63318C5.67134 5.63318 4.68311 6.6194 4.68311 7.83597C4.68311 9.05253 5.67134 10.0388 6.89038 10.0388Z" fill="white"/>
<path opacity="0.5" d="M20.1403 9.74304C20.9752 9.74304 21.6521 9.06755 21.6521 8.23428C21.6521 7.40102 20.9752 6.72552 20.1403 6.72552C19.3053 6.72552 18.6284 7.40102 18.6284 8.23428C18.6284 9.06755 19.3053 9.74304 20.1403 9.74304Z" fill="white"/>
<path opacity="0.5" d="M0.540919 4.98138C1.64975 4.98138 2.54863 4.08433 2.54863 2.97775C2.54863 1.87118 1.64975 0.974121 0.540919 0.974121C-0.567912 0.974121 -1.4668 1.87118 -1.4668 2.97775C-1.4668 4.08433 -0.567912 4.98138 0.540919 4.98138Z" fill="white"/>
<path opacity="0.5" d="M34.0553 2.56734L28.9635 3.69589L21.4406 7.83593L14.1354 9.93612L7.48937 8.04715H2.24633L0.486557 3.92522L-2.4585 1.14911V15.9772H34.0553V2.56734Z" fill="white"/>
</g>
<g opacity="0.5">
<path opacity="0.5" d="M-2.4585 3.05023V9.01285C-0.807573 9.01285 0.528889 7.6791 0.528889 6.03154C0.528889 4.38397 -0.807573 3.05023 -2.4585 3.05023Z" fill="white"/>
<path opacity="0.5" d="M1.99833 10.1353C3.91206 10.1353 5.46345 8.58709 5.46345 6.67725C5.46345 4.76741 3.91206 3.21918 1.99833 3.21918C0.0845922 3.21918 -1.4668 4.76741 -1.4668 6.67725C-1.4668 8.58709 0.0845922 10.1353 1.99833 10.1353Z" fill="white"/>

<path opacity="0.5" d="M8.03359 14.8306C9.85381 14.8306 11.3294 13.358 11.3294 11.5415C11.3294 9.72502 9.85381 8.25244 8.03359 8.25244C6.21337 8.25244 4.73779 9.72502 4.73779 11.5415C4.73779 13.358 6.21337 14.8306 8.03359 14.8306Z" fill="white"/>
<path opacity="0.5" d="M4.59252 11.4691C5.55106 11.4691 6.32811 10.6936 6.32811 9.73706C6.32811 8.78047 5.55106 8.005 4.59252 8.005C3.63398 8.005 2.85693 8.78047 2.85693 9.73706C2.85693 10.6936 3.63398 11.4691 4.59252 11.4691Z" fill="white"/>
<path opacity="0.5" d="M25.0148 11.2217C26.3006 11.2217 27.343 10.1814 27.343 8.8982C27.343 7.61497 26.3006 6.57471 25.0148 6.57471C23.7289 6.57471 22.6865 7.61497 22.6865 8.8982C22.6865 10.1814 23.7289 11.2217 25.0148 11.2217Z" fill="white"/>
<path opacity="0.5" d="M16.0948 13.2555C16.9298 13.2555 17.6067 12.58 17.6067 11.7467C17.6067 10.9135 16.9298 10.238 16.0948 10.238C15.2599 10.238 14.583 10.9135 14.583 11.7467C14.583 12.58 15.2599 13.2555 16.0948 13.2555Z" fill="white"/>
<path opacity="0.5" d="M22.6017 11.4389C23.4366 11.4389 24.1135 10.7634 24.1135 9.93014C24.1135 9.09688 23.4366 8.42139 22.6017 8.42139C21.7667 8.42139 21.0898 9.09688 21.0898 9.93014C21.0898 10.7634 21.7667 11.4389 22.6017 11.4389Z" fill="white"/>
<path opacity="0.5" d="M27.2462 9.737C28.0812 9.737 28.758 9.06151 28.758 8.22824C28.758 7.39498 28.0812 6.71948 27.2462 6.71948C26.4112 6.71948 25.7344 7.39498 25.7344 8.22824C25.7344 9.06151 26.4112 9.737 27.2462 9.737Z" fill="white"/>
<path opacity="0.5" d="M19.832 14.1788C21.532 14.1788 22.9101 12.8035 22.9101 11.107C22.9101 9.41046 21.532 8.03516 19.832 8.03516C18.132 8.03516 16.7539 9.41046 16.7539 11.107C16.7539 12.8035 18.132 14.1788 19.832 14.1788Z" fill="white"/>
<path opacity="0.5" d="M30.2276 9.1094C32.0845 9.1094 33.5899 7.6071 33.5899 5.75392C33.5899 3.90074 32.0845 2.39844 30.2276 2.39844C28.3706 2.39844 26.8652 3.90074 26.8652 5.75392C26.8652 7.6071 28.3706 9.1094 30.2276 9.1094Z" fill="white"/>
<path opacity="0.5" d="M13.6154 13.5934C14.8078 13.5934 15.7743 12.6288 15.7743 11.4389C15.7743 10.249 14.8078 9.28442 13.6154 9.28442C12.4231 9.28442 11.4565 10.249 11.4565 11.4389C11.4565 12.6288 12.4231 13.5934 13.6154 13.5934Z" fill="white"/>
<path opacity="0.5" d="M11.3295 12.1752C12.0041 12.1752 12.551 11.6294 12.551 10.9561C12.551 10.2829 12.0041 9.73706 11.3295 9.73706C10.6548 9.73706 10.1079 10.2829 10.1079 10.9561C10.1079 11.6294 10.6548 12.1752 11.3295 12.1752Z" fill="white"/>
<path opacity="0.5" d="M-2.4585 6.07378L2.94782 8.92232L7.6587 9.80947L13.4097 11.8191H20.9084L26.9195 7.59461L34.0553 5.17456V15.9773H-2.4585V6.07378Z" fill="white"/>
</g>
<path opacity="0.1" d="M7.23543 20.413C15.0974 20.413 21.4709 14.0525 21.4709 6.20648C21.4709 -1.63954 15.0974 -8 7.23543 -8C-0.626581 -8 -7 -1.63954 -7 6.20648C-7 14.0525 -0.626581 20.413 7.23543 20.413Z" fill="white"/>
<path opacity="0.1" d="M7.2355 17.3109C13.3808 17.3109 18.3626 12.3393 18.3626 6.20646C18.3626 0.0736294 13.3808 -4.89801 7.2355 -4.89801C1.09017 -4.89801 -3.8916 0.0736294 -3.8916 6.20646C-3.8916 12.3393 1.09017 17.3109 7.2355 17.3109Z" fill="white"/>
<path opacity="0.1" d="M7.23527 14.2149C11.6672 14.2149 15.2601 10.6294 15.2601 6.20643C15.2601 1.78346 11.6672 -1.80206 7.23527 -1.80206C2.80328 -1.80206 -0.789551 1.78346 -0.789551 6.20643C-0.789551 10.6294 2.80328 14.2149 7.23527 14.2149Z" fill="white"/>
<path opacity="0.1" d="M7.23552 11.119C9.95416 11.119 12.1581 8.91957 12.1581 6.20646C12.1581 3.49335 9.95416 1.29395 7.23552 1.29395C4.51688 1.29395 2.31299 3.49335 2.31299 6.20646C2.31299 8.91957 4.51688 11.119 7.23552 11.119Z" fill="white"/>
</g>
</svg>