<svg width="10" height="10" viewBox="0 0 10 10" fill="none" xmlns="http://www.w3.org/2000/svg">
<g clip-path="url(#clip0)">
<path d="M9.31355 0.686747C8.39788 -0.228916 6.91465 -0.228916 5.99898 0.686747L4.19315 2.49258C3.89071 2.79502 3.69184 3.15963 3.58823 3.54494C3.47637 3.95514 3.48049 4.39018 3.60067 4.80035C3.70424 5.1691 3.90311 5.51711 4.19315 5.80715C4.48319 6.09719 4.83119 6.29603 5.19994 6.39963C5.61012 6.5198 6.04514 6.52392 6.45535 6.41207C6.84066 6.30845 7.20527 6.10959 7.50771 5.80715L9.31355 4.00131C10.2292 3.08567 10.2292 1.60243 9.31355 0.686747ZM6.67906 4.97852C6.60863 5.04895 6.52988 5.11109 6.44289 5.15668C5.99545 5.42185 5.40709 5.36385 5.02178 4.97852C4.63647 4.59318 4.57846 4.00485 4.84361 3.55741C4.88918 3.47041 4.95135 3.39166 5.02178 3.32123L6.82761 1.5154C7.28336 1.05966 8.02915 1.05966 8.4849 1.5154C8.94064 1.97114 8.94064 2.71694 8.4849 3.17268L6.67906 4.97852Z" fill="#FF9F00"/>
<path d="M9.31328 4.00131L7.50744 5.80715C7.205 6.10959 6.84039 6.30846 6.45508 6.41207C6.04488 6.52392 5.60984 6.5198 5.19967 6.39963C4.83092 6.29605 4.48291 6.09719 4.19287 5.80715L5.0215 4.97852C5.40682 5.36383 5.99518 5.42184 6.44262 5.15668C6.52961 5.11111 6.60836 5.04895 6.67879 4.97852L8.48463 3.17268C8.94037 2.71694 8.94037 1.97114 8.48463 1.5154L9.31326 0.686768C10.2289 1.60241 10.2289 3.08565 9.31328 4.00131Z" fill="#FF7816"/>
<path d="M5.85014 7.46441L4.00131 9.31323C3.08565 10.2289 1.60241 10.2289 0.686747 9.31323C-0.228916 8.39757 -0.228916 6.91433 0.686747 5.99867L2.53557 4.14984C2.83801 3.8474 3.20262 3.64853 3.58793 3.54492C3.47608 3.95512 3.4802 4.39015 3.60037 4.80033C3.51338 4.8459 3.43463 4.90806 3.3642 4.97849L1.51538 6.82732C1.05964 7.28306 1.05964 8.02886 1.51538 8.4846C1.97112 8.94034 2.71692 8.94034 3.17266 8.4846L5.02148 6.63577C5.09191 6.56535 5.15406 6.4866 5.19965 6.3996C5.46482 5.95216 5.40682 5.3638 5.02148 4.97849C4.63615 4.59318 4.57817 4.00482 4.84332 3.55738C5.21207 3.66096 5.56008 3.85982 5.85012 4.14986C6.14014 4.4399 6.339 4.78791 6.4426 5.15666C6.56277 5.56683 6.56689 6.00185 6.45504 6.41206C6.35144 6.79736 6.15258 7.16196 5.85014 7.46441Z" fill="#FFC843"/>
<path d="M5.8499 7.46445L4.00108 9.31327C3.08542 10.2289 1.60218 10.2289 0.686523 9.31327L1.51515 8.48464C1.97089 8.94038 2.71669 8.94038 3.17243 8.48464L5.02125 6.63581C5.09168 6.56539 5.15383 6.48664 5.19942 6.39964C5.46459 5.9522 5.40658 5.36384 5.02125 4.97853L5.84988 4.1499C6.1399 4.43994 6.33877 4.78795 6.44236 5.1567C6.56254 5.56687 6.56666 6.00189 6.4548 6.4121C6.35121 6.7974 6.15234 7.162 5.8499 7.46445Z" fill="#FFDA2D"/>
</g>
<defs>
<clipPath id="clip0">
<rect width="10" height="10" fill="white"/>
</clipPath>
</defs>
</svg>
