<svg width="26" height="26" viewBox="0 0 26 26" fill="none" xmlns="http://www.w3.org/2000/svg">
<g clip-path="url(#clip0)">
<path d="M2.0164 17.5565V5.14262C2.0164 3.25142 3.5208 1.71826 5.37689 1.71826H3.75844C1.90254 1.71826 0.397949 3.25142 0.397949 5.14262V17.5565C0.397949 19.4479 1.90254 20.981 3.75844 20.981H4.15477C4.15477 20.981 2.0164 19.4479 2.0164 17.5565Z" fill="#FFC843"/>
<path d="M22.2416 1.32031H3.75841C1.6861 1.32031 0 3.03497 0 5.14259V17.5564C0 19.6642 1.6861 21.3789 3.75841 21.3789H3.92285L5.40919 24.0023C5.62938 24.3909 6.04079 24.6321 6.48314 24.6321C6.92529 24.6321 7.3367 24.3909 7.55688 24.0023L9.04323 21.3789H22.2416C24.3139 21.3789 26 19.6642 26 17.5564V5.14259C26 3.03497 24.3139 1.32031 22.2416 1.32031ZM25.2042 17.5564C25.2042 19.2253 23.8751 20.5829 22.2416 20.5829H8.57945L6.8644 23.6099C6.78525 23.7496 6.63925 23.8362 6.48314 23.8362C6.32703 23.8362 6.18083 23.7496 6.10168 23.6099L4.38683 20.5829H3.75841C2.12488 20.5829 0.795837 19.2253 0.795837 17.5564V5.14259C0.795837 3.47395 2.12488 2.11615 3.75841 2.11615H22.2416C23.8751 2.11615 25.2042 3.47395 25.2042 5.14259V17.5564Z" fill="white"/>
<g clip-path="url(#clip1)">
<path d="M19.0384 4.96145C17.7565 3.67952 15.6799 3.67952 14.398 4.96145L11.8698 7.48962C11.4464 7.91303 11.168 8.42349 11.0229 8.96292C10.8663 9.53719 10.8721 10.1462 11.0403 10.7205C11.1854 11.2367 11.4638 11.724 11.8698 12.13C12.2759 12.5361 12.7631 12.8144 13.2793 12.9595C13.8536 13.1277 14.4626 13.1335 15.0369 12.9769C15.5763 12.8318 16.0868 12.5534 16.5102 12.13L19.0384 9.60184C20.3203 8.31994 20.3203 6.2434 19.0384 4.96145ZM15.3501 10.9699C15.2515 11.0685 15.1412 11.1555 15.0195 11.2194C14.393 11.5906 13.5693 11.5094 13.0299 10.9699C12.4905 10.4305 12.4093 9.60678 12.7805 8.98037C12.8443 8.85858 12.9313 8.74833 13.0299 8.64973L15.5581 6.12156C16.1961 5.48352 17.2402 5.48352 17.8783 6.12156C18.5163 6.75959 18.5163 7.80371 17.8783 8.44175L15.3501 10.9699Z" fill="#FF9F00"/>
<path d="M19.0387 9.60179L16.5105 12.13C16.0871 12.5534 15.5766 12.8318 15.0372 12.9768C14.4629 13.1334 13.8539 13.1277 13.2796 12.9594C12.7634 12.8144 12.2762 12.536 11.8701 12.13L13.0302 10.9699C13.5696 11.5093 14.3933 11.5905 15.0198 11.2193C15.1416 11.1555 15.2518 11.0685 15.3504 10.9699L17.8786 8.4417C18.5166 7.80367 18.5166 6.75955 17.8786 6.12151L19.0387 4.96143C20.3206 6.24333 20.3206 8.31986 19.0387 9.60179Z" fill="#FF7816"/>
<path d="M14.1902 14.4502L11.6018 17.0385C10.3199 18.3205 8.24337 18.3205 6.96145 17.0385C5.67952 15.7566 5.67952 13.6801 6.96145 12.3981L9.5498 9.80978C9.97322 9.38636 10.4837 9.10795 11.0231 8.96289C10.8665 9.53716 10.8723 10.1462 11.0405 10.7205C10.9187 10.7843 10.8085 10.8713 10.7099 10.9699L8.12153 13.5582C7.48349 14.1963 7.48349 15.2404 8.12153 15.8784C8.75957 16.5165 9.80369 16.5165 10.4417 15.8784L13.0301 13.2901C13.1287 13.1915 13.2157 13.0812 13.2795 12.9594C13.6508 12.333 13.5695 11.5093 13.0301 10.9699C12.4906 10.4305 12.4094 9.60675 12.7806 8.98034C13.2969 9.12534 13.7841 9.40375 14.1902 9.80981C14.5962 10.2159 14.8746 10.7031 15.0196 11.2193C15.1879 11.7936 15.1936 12.4026 15.0371 12.9769C14.892 13.5163 14.6136 14.0268 14.1902 14.4502Z" fill="#FFC843"/>
<path d="M14.1902 14.4502L11.6018 17.0385C10.3199 18.3205 8.24335 18.3205 6.96143 17.0385L8.12151 15.8784C8.75954 16.5165 9.80366 16.5165 10.4417 15.8784L13.03 13.2901C13.1286 13.1915 13.2157 13.0812 13.2795 12.9595C13.6507 12.333 13.5695 11.5093 13.03 10.9699L14.1901 9.80981C14.5962 10.2159 14.8746 10.7031 15.0196 11.2193C15.1878 11.7936 15.1936 12.4026 15.037 12.9769C14.892 13.5163 14.6136 14.0268 14.1902 14.4502Z" fill="#FFDA2D"/>
</g>
</g>
<defs>
<clipPath id="clip0">
<rect width="26" height="26" fill="white"/>
</clipPath>
<clipPath id="clip1">
<rect width="14" height="14" fill="white" transform="translate(6 4)"/>
</clipPath>
</defs>
</svg>
